<?xml version="1.0" encoding="UTF-8"?>
<svg version="1.1" xmlns="http://www.w3.org/2000/svg" width="333" height="459">
<path d="M0 0 C3.12618294 1.13629954 5.4868038 2.93548407 8.18359375 4.87890625 C18.68464199 12.43275764 29.86306766 18.83427297 41.18359375 25.06640625 C42.35627603 25.71594522 43.52879922 26.36577149 44.70117188 27.01586914 C50.28083368 30.1053618 55.87580059 33.16395916 61.5 36.171875 C70.89147176 41.20137162 79.93464633 46.09719014 88.24609375 52.81640625 C89.27734375 53.57953125 90.30859375 54.34265625 91.37109375 55.12890625 C107.45778979 70.16646994 117.03535843 91.88149956 118.24609375 113.81640625 C118.4657384 123.6988266 118.02088769 133.37168217 117.07421875 143.21484375 C116.94990567 144.56241423 116.82626761 145.91004712 116.70324707 147.25773621 C116.44255296 150.10139226 116.17797398 152.94464575 115.91003418 155.78762817 C115.27616579 162.51597514 114.66221313 169.24615371 114.04709625 175.97623634 C113.90883877 177.48784508 113.77032424 178.99943033 113.63155365 180.51099205 C112.14232811 196.73416447 110.80963736 212.9686448 109.54003906 229.21044922 C108.8168271 238.37897379 107.98319946 247.51531793 106.92701721 256.65171814 C106.23088254 262.73999257 105.79799748 268.82455877 105.43359375 274.94140625 C104.59890598 287.43838745 103.44585128 299.90088185 102.19180298 312.36224365 C101.98062799 314.4720645 101.77347154 316.58229205 101.57064819 318.69293213 C99.15124432 343.73967691 94.23936779 366.34285159 77.24609375 385.81640625 C76.72660156 386.43128906 76.20710937 387.04617188 75.671875 387.6796875 C63.3781225 401.15017197 44.85792637 407.55000659 27.96585083 412.99691772 C23.9660153 414.28823682 19.97580949 415.60877179 15.984375 416.92578125 C15.21059006 417.18046677 14.43680511 417.43515228 13.63957214 417.69755554 C0.26059067 422.10848348 -12.76009923 427.09137463 -25.64233398 432.79760742 C-28.00103274 433.835306 -30.37200273 434.83336507 -32.75390625 435.81640625 C-33.96304688 436.32300781 -35.1721875 436.82960938 -36.41796875 437.3515625 C-40.2837732 437.89024017 -41.89818301 437.07260824 -45.04125977 434.84326172 C-45.64768311 434.38064941 -46.25410645 433.91803711 -46.87890625 433.44140625 C-48.20173078 432.49674252 -49.52597429 431.55406294 -50.8515625 430.61328125 C-51.50785645 430.13826172 -52.16415039 429.66324219 -52.84033203 429.17382812 C-64.56903659 420.85389991 -77.49438067 414.05895325 -90.18092346 407.33595276 C-117.31370812 392.95400552 -142.3743601 378.50474161 -152.87890625 347.69140625 C-158.24940543 330.04548038 -158.35792982 313.04822744 -156.37890625 294.87890625 C-155.33969953 285.03443045 -154.43526936 275.19323442 -153.75390625 265.31640625 C-153.1200481 256.23374721 -152.32167928 247.18460333 -151.37890625 238.12890625 C-150.17132998 226.45770833 -149.13986162 214.77933143 -148.18325806 203.08508301 C-146.60186777 183.75560486 -144.97786963 164.42970996 -143.28089619 145.11002636 C-142.9554355 141.40444877 -142.63236554 137.6987071 -142.31600952 133.99234009 C-139.47940209 100.80952845 -136.4253564 68.02624898 -109.49609375 44.9140625 C-99.90733761 37.57907383 -89.28573776 31.74140288 -77.80078125 28.046875 C-77.06727448 27.80527649 -76.3337677 27.56367798 -75.57803345 27.3147583 C-74.02265746 26.80302984 -72.46641381 26.29393191 -70.90936279 25.787323 C-68.46682046 24.99182803 -66.02724691 24.18778835 -63.58837891 23.38110352 C-60.38991665 22.32322052 -57.19095897 21.26687852 -53.99121094 20.21289062 C-39.82367382 15.5443007 -13.56947109 -1.42041234 0 0 Z M-8.47875977 20.40673828 C-19.37435567 25.28965936 -30.48682506 29.21782843 -41.81640625 32.94140625 C-42.99348145 33.3290918 -42.99348145 33.3290918 -44.19433594 33.72460938 C-49.37807231 35.43043273 -54.56544427 37.12502045 -59.75390625 38.81640625 C-83.22103779 46.46693859 -103.21350088 55.03441322 -115.40234375 77.91015625 C-120.50991306 88.3744446 -122.95289387 99.0358657 -124.19140625 110.56640625 C-124.30991943 111.62351807 -124.42843262 112.68062988 -124.55053711 113.76977539 C-126.07387741 127.95169497 -127.17279239 142.1783143 -128.30834961 156.39550781 C-129.1095936 166.38460961 -129.98755416 176.35247817 -131.07339478 186.31484985 C-131.78495942 192.91021726 -132.27248909 199.50860867 -132.69140625 206.12890625 C-133.33245854 215.62989447 -134.13953216 225.09555884 -135.12890625 234.56640625 C-136.5588936 248.30193384 -137.73852426 262.05407501 -138.87890625 275.81640625 C-138.96517273 276.85406128 -139.05143921 277.89171631 -139.14031982 278.96081543 C-139.68945262 285.57846206 -140.22728301 292.19693143 -140.75390625 298.81640625 C-140.81251831 299.54520996 -140.87113037 300.27401367 -140.93151855 301.02490234 C-142.7338454 323.62425268 -141.23272245 344.32614314 -126.75390625 362.81640625 C-125.95339844 363.86441406 -125.95339844 363.86441406 -125.13671875 364.93359375 C-115.90978736 376.27962899 -102.56564024 382.35112955 -89.93115234 389.10986328 C-75.21685996 397.01311392 -60.55759676 404.98422235 -46.57543945 414.13671875 C-44.65107151 415.39178936 -42.70822277 416.60878221 -40.75390625 417.81640625 C-39.56087891 418.59371094 -39.56087891 418.59371094 -38.34375 419.38671875 C-33.84249982 420.13353251 -30.20414609 417.78326357 -26.19140625 415.87890625 C-24.29271441 415.02211724 -22.39160836 414.17066073 -20.48828125 413.32421875 C-19.52728516 412.89657227 -18.56628906 412.46892578 -17.57617188 412.02832031 C-13.42717848 410.24669374 -9.21081505 408.71925968 -4.94140625 407.25390625 C-3.73133911 406.83842529 -3.73133911 406.83842529 -2.49682617 406.41455078 C3.11854216 404.5070716 8.75152668 402.65189199 14.38110352 400.78686523 C35.69103543 394.22179017 35.69103543 394.22179017 55.24609375 383.81640625 C56.00148437 383.31753906 56.756875 382.81867188 57.53515625 382.3046875 C71.77581718 372.19920131 80.61952345 354.33774424 83.6852417 337.38851929 C84.63202527 330.89032622 85.21325221 324.35429834 85.80859375 317.81640625 C86.01509102 315.68722198 86.22279873 313.5581548 86.43164062 311.42919922 C87.0651551 304.89412267 87.66133422 298.35600676 88.24609375 291.81640625 C88.37887726 290.33581726 88.37887726 290.33581726 88.51434326 288.82531738 C89.53975623 277.34756533 90.50689596 265.86524514 91.45307922 254.38072205 C92.45509906 242.23735859 93.49704244 230.09743681 94.54199219 217.95770264 C94.86146173 214.24096606 95.17888892 210.52405935 95.49609375 206.80712891 C96.44633935 195.72218873 97.44353581 184.64663446 98.57887268 173.5790863 C99.30135511 166.45812085 99.83708849 159.33368592 100.30859375 152.19140625 C101.17657554 139.2649337 101.17657554 139.2649337 101.79296875 133.3984375 C104.02097736 111.93999753 100.59522285 91.32265672 87.09765625 74.0703125 C74.07882863 58.88168027 55.09171434 50.00389953 37.359375 41.38671875 C29.89448449 37.62149166 22.81856738 33.16378343 15.68359375 28.81640625 C14.66845703 28.20023438 13.65332031 27.5840625 12.60742188 26.94921875 C4.32594241 21.90784784 4.32594241 21.90784784 0.59375 19.37890625 C-3.16795751 16.87527396 -4.47799514 18.59095109 -8.47875977 20.40673828 Z " fill="#DEB669" transform="translate(192.75390625,1.18359375)"/>
<path d="M0 0 C3.12618294 1.13629954 5.4868038 2.93548407 8.18359375 4.87890625 C18.68464199 12.43275764 29.86306766 18.83427297 41.18359375 25.06640625 C42.35627603 25.71594522 43.52879922 26.36577149 44.70117188 27.01586914 C50.28083368 30.1053618 55.87580059 33.16395916 61.5 36.171875 C70.89147176 41.20137162 79.93464633 46.09719014 88.24609375 52.81640625 C89.27734375 53.57953125 90.30859375 54.34265625 91.37109375 55.12890625 C102.94036327 65.9436582 114.13815042 82.56657077 115.24609375 98.81640625 C109.97336648 90.90731534 109.97336648 90.90731534 109.24609375 85.81640625 C108.25609375 85.48640625 107.26609375 85.15640625 106.24609375 84.81640625 C105.91609375 84.48640625 105.58609375 84.15640625 105.24609375 83.81640625 C104.58609375 84.80640625 103.92609375 85.79640625 103.24609375 86.81640625 C102.70307617 87.2956958 102.16005859 87.77498535 101.60058594 88.26879883 C101.15360352 88.77950928 100.70662109 89.29021973 100.24609375 89.81640625 C100.50698092 92.8072913 100.93099078 95.56731464 101.49609375 98.50390625 C103.10402247 108.11444539 103.73904287 117.65782479 104.05859375 127.37890625 C104.08546265 128.05609711 104.11233154 128.73328796 104.14001465 129.43099976 C104.55537427 140.19464987 104.19514664 150.66169882 100.24609375 160.81640625 C99.91609375 160.81640625 99.58609375 160.81640625 99.24609375 160.81640625 C98.94350332 153.63828893 99.50722351 146.63381327 100.24609375 139.50390625 C102.62694287 115.85953994 101.21140952 93.80544071 86.3203125 74.29296875 C73.79228937 59.40592116 54.57162928 50.75115978 37.359375 42.38671875 C29.89448449 38.62149166 22.81856738 34.16378343 15.68359375 29.81640625 C14.66845703 29.20023438 13.65332031 28.5840625 12.60742188 27.94921875 C4.32637386 22.90811048 4.32637386 22.90811048 0.6796875 20.42578125 C-1.55278025 18.94941413 -3.13153243 18.21984838 -5.75390625 17.81640625 C-4.76390625 17.15640625 -3.77390625 16.49640625 -2.75390625 15.81640625 C-1.51111161 11.86205965 -1.67322857 7.93096778 -1.75390625 3.81640625 C-2.41390625 4.47640625 -3.07390625 5.13640625 -3.75390625 5.81640625 C-9.89771217 9.15543121 -15.84046655 9.48719484 -22.75390625 9.81640625 C-20.73210251 7.79460251 -19.51161595 7.16868665 -16.91015625 6.125 C-16.15863281 5.82013672 -15.40710938 5.51527344 -14.6328125 5.20117188 C-13.84777344 4.88857422 -13.06273437 4.57597656 -12.25390625 4.25390625 C-10.70160559 3.62814301 -9.14951243 3.00186472 -7.59765625 2.375 C-6.90865234 2.09970459 -6.21964844 1.82440918 -5.50976562 1.54077148 C-1.41571943 -0.14819335 -1.41571943 -0.14819335 0 0 Z " fill="#E1B86A" transform="translate(192.75390625,1.18359375)"/>
<path d="M0 0 C0.33 0 0.66 0 1 0 C1.1765235 5.11918146 1.2012966 9.24983365 -1 14 C-1.99 14.33 -2.98 14.66 -4 15 C-4 15.66 -4 16.32 -4 17 C-15.75618488 22.84371763 -27.93942717 27.17867439 -40.375 31.3125 C-41.5418634 31.70254211 -41.5418634 31.70254211 -42.7322998 32.10046387 C-68.14465822 40.56857741 -68.14465822 40.56857741 -78 40 C-77.505 37.03 -77.505 37.03 -77 34 C-80.13349732 32.95550089 -80.98968256 33.06576355 -84 34 C-84 33.34 -84 32.68 -84 32 C-84.99 31.67 -85.98 31.34 -87 31 C-86.38511719 30.89042969 -85.77023438 30.78085937 -85.13671875 30.66796875 C-84.32847656 30.50941406 -83.52023438 30.35085937 -82.6875 30.1875 C-81.88699219 30.03667969 -81.08648437 29.88585937 -80.26171875 29.73046875 C-77.69031875 28.89998205 -76.87828331 27.88588888 -75 26 C-68.19064009 22.10211874 -60.97145593 19.93128866 -53.5 17.625 C-44.24274574 14.71897389 -35.11302447 11.69034236 -26.1015625 8.09375 C-20.33914592 6.06166355 -15.02920062 5.89604827 -9 6 C-8.67 5.34 -8.34 4.68 -8 4 C-5.68191636 2.96514123 -3.34824702 1.9644586 -1 1 C-0.67 0.67 -0.34 0.34 0 0 Z " fill="#EFCA8E" transform="translate(191,4)"/>
<path d="M0 0 C6.1715752 1.69456811 11.54665441 4.82011796 17.125 7.875 C18.17872803 8.44927734 19.23245605 9.02355469 20.31811523 9.61523438 C27.30804086 13.45246976 34.22086245 17.40435228 41.0625 21.5 C42.26447021 22.21905518 42.26447021 22.21905518 43.49072266 22.95263672 C48.15021085 25.77768074 52.60518631 28.77830391 57 32 C56.01 32.495 56.01 32.495 55 33 C52.96855359 32.06553465 50.96466413 31.06775224 49 30 C49 29.34 49 28.68 49 28 C48.071875 28.061875 47.14375 28.12375 46.1875 28.1875 C43 28 43 28 41.125 26.5 C40.75375 26.005 40.3825 25.51 40 25 C39.01 25.33 38.02 25.66 37 26 C37 26.66 37 27.32 37 28 C34.03 28.495 34.03 28.495 31 29 C31 29.66 31 30.32 31 31 C31.99 31 32.98 31 34 31 C34.495 33.475 34.495 33.475 35 36 C36.1446875 36.185625 36.1446875 36.185625 37.3125 36.375 C40 37 40 37 43 39 C43.495 38.01 43.495 38.01 44 37 C44 37.99 44 38.98 44 40 C44.99 40 45.98 40 47 40 C47 40.99 47 41.98 47 43 C48.65 43.33 50.3 43.66 52 44 C52 44.66 52 45.32 52 46 C55.53854164 48.27477677 57.70947373 47.99082706 61.75 47.125 C62.73484375 46.92132813 63.7196875 46.71765625 64.734375 46.5078125 C65.48203125 46.34023438 66.2296875 46.17265625 67 46 C67.33 46.66 67.66 47.32 68 48 C66.6153832 48.73001583 65.21662355 49.43324582 63.8125 50.125 C63.03519531 50.51945312 62.25789063 50.91390625 61.45703125 51.3203125 C58.19234146 52.22342224 56.96727633 51.56796169 54 50 C52.13926515 48.83430434 50.30762373 47.62146581 48.5 46.375 C31.35141244 34.76091992 13.15160189 24.92983244 -5 15 C-3.68 14.67 -2.36 14.34 -1 14 C-1.515625 13.21625 -2.03125 12.4325 -2.5625 11.625 C-3.036875 10.75875 -3.51125 9.8925 -4 9 C-3.67 8.34 -3.34 7.68 -3 7 C-2.67 6.01 -2.34 5.02 -2 4 C-1.34 4 -0.68 4 0 4 C0 2.68 0 1.36 0 0 Z " fill="#DEB567" transform="translate(96,387)"/>
<path d="M0 0 C-0.639375 0.103125 -1.27875 0.20625 -1.9375 0.3125 C-2.618125 0.539375 -3.29875 0.76625 -4 1 C-4.33 1.99 -4.66 2.98 -5 4 C-6.98 4.33 -8.96 4.66 -11 5 C-10.505 5.99 -10.505 5.99 -10 7 C-8.68 6.67 -7.36 6.34 -6 6 C-6 6.66 -6 7.32 -6 8 C-5.34 8 -4.68 8 -4 8 C-4 9.65 -4 11.3 -4 13 C0.47427924 13.08948558 4.60563789 12.85743651 9 12 C5.99814562 14.00123626 3.30753322 15.113748 -0.0625 16.375 C-5.09168654 18.26305216 -10.05112893 20.25481026 -14.9765625 22.3984375 C-17 23 -17 23 -20 22 C-20 22.66 -20 23.32 -20 24 C-20.99 24 -21.98 24 -23 24 C-23 24.66 -23 25.32 -23 26 C-23.99 26 -24.98 26 -26 26 C-26 26.99 -26 27.98 -26 29 C-26.639375 29.103125 -27.27875 29.20625 -27.9375 29.3125 C-28.618125 29.539375 -29.29875 29.76625 -30 30 C-30.33 30.99 -30.66 31.98 -31 33 C-34.35888281 35.11485214 -37.24490479 36.7483016 -41 38 C-41.45375 38.9075 -41.9075 39.815 -42.375 40.75 C-44.12245015 44.24490029 -46.14116191 46.37295959 -49 49 C-52 47 -52 47 -52.875 44.375 C-53.17876549 36.17333181 -48.76178293 30.7727122 -43.640625 24.80078125 C-35.7172603 16.39685745 -12.52759614 -4.17586538 0 0 Z " fill="#F0C579" transform="translate(118,30)"/>
<path d="M0 0 C3.12618294 1.13629954 5.4868038 2.93548407 8.18359375 4.87890625 C20.95285356 13.90832806 34.51174101 21.37619359 48.24609375 28.81640625 C48.24609375 29.14640625 48.24609375 29.47640625 48.24609375 29.81640625 C44.61923914 30.01789817 42.33380523 29.77195686 39.24609375 27.81640625 C38.22740713 26.83544877 37.22257392 25.83938547 36.24609375 24.81640625 C35.91609375 24.81640625 35.58609375 24.81640625 35.24609375 24.81640625 C36.23609375 25.80640625 37.22609375 26.79640625 38.24609375 27.81640625 C36.55859375 29.87890625 36.55859375 29.87890625 34.24609375 31.81640625 C31.55859375 31.69140625 31.55859375 31.69140625 29.24609375 30.81640625 C28.75109375 29.82640625 28.75109375 29.82640625 28.24609375 28.81640625 C28.59054256 31.2890739 28.59054256 31.2890739 29.24609375 33.81640625 C30.23609375 34.31140625 30.23609375 34.31140625 31.24609375 34.81640625 C31.24609375 35.47640625 31.24609375 36.13640625 31.24609375 36.81640625 C32.02984375 36.96078125 32.81359375 37.10515625 33.62109375 37.25390625 C36.24609375 37.81640625 36.24609375 37.81640625 38.24609375 38.81640625 C38.24609375 39.47640625 38.24609375 40.13640625 38.24609375 40.81640625 C38.90609375 40.81640625 39.56609375 40.81640625 40.24609375 40.81640625 C40.24609375 41.47640625 40.24609375 42.13640625 40.24609375 42.81640625 C31.31575341 40.2026481 23.5733141 34.62365459 15.68359375 29.81640625 C14.66845703 29.20023438 13.65332031 28.5840625 12.60742188 27.94921875 C4.32637386 22.90811048 4.32637386 22.90811048 0.6796875 20.42578125 C-1.55278025 18.94941413 -3.13153243 18.21984838 -5.75390625 17.81640625 C-4.76390625 17.15640625 -3.77390625 16.49640625 -2.75390625 15.81640625 C-1.51111161 11.86205965 -1.67322857 7.93096778 -1.75390625 3.81640625 C-2.41390625 4.47640625 -3.07390625 5.13640625 -3.75390625 5.81640625 C-9.89771217 9.15543121 -15.84046655 9.48719484 -22.75390625 9.81640625 C-20.73210251 7.79460251 -19.51161595 7.16868665 -16.91015625 6.125 C-16.15863281 5.82013672 -15.40710938 5.51527344 -14.6328125 5.20117188 C-13.84777344 4.88857422 -13.06273437 4.57597656 -12.25390625 4.25390625 C-10.70160559 3.62814301 -9.14951243 3.00186472 -7.59765625 2.375 C-6.90865234 2.09970459 -6.21964844 1.82440918 -5.50976562 1.54077148 C-1.41571943 -0.14819335 -1.41571943 -0.14819335 0 0 Z " fill="#C59B58" transform="translate(192.75390625,1.18359375)"/>
<path d="M0 0 C0.495 0.99 0.495 0.99 1 2 C0.67 2.66 0.34 3.32 0 4 C1.32 3.67 2.64 3.34 4 3 C3.125 7.75 3.125 7.75 2 10 C2.66 10 3.32 10 4 10 C4.495 11.98 4.495 11.98 5 14 C6.32 13.34 7.64 12.68 9 12 C9 11.01 9 10.02 9 9 C9.66 9 10.32 9 11 9 C11.33 7.68 11.66 6.36 12 5 C12.66 5 13.32 5 14 5 C14 4.01 14 3.02 14 2 C14.99 2.33 15.98 2.66 17 3 C9.06153836 19.80866761 -8.05848415 30.69198878 -25 37 C-26.9903111 37.38700494 -28.98957711 37.73673034 -31 38 C-30.67 37.01 -30.34 36.02 -30 35 C-25.545 34.505 -25.545 34.505 -21 34 C-20.34 32.02 -19.68 30.04 -19 28 C-19.66 28 -20.32 28 -21 28 C-21 28.66 -21 29.32 -21 30 C-21.66 29.67 -22.32 29.34 -23 29 C-22.67 27.35 -22.34 25.7 -22 24 C-22.763125 24 -23.52625 24 -24.3125 24 C-27.54166667 24 -30.77083333 24 -34 24 C-34 24.66 -34 25.32 -34 26 C-38.02040985 26.69584017 -41.08263419 27.1700097 -45 26 C-44.24976563 25.75765625 -43.49953125 25.5153125 -42.7265625 25.265625 C-26.71638121 20.02299636 -10.53911681 13.83259081 0 0 Z " fill="#DBB368" transform="translate(261,372)"/>
<path d="M0 0 C3.33333333 1.66666667 6.66666667 3.33333333 10 5 C10 5.66 10 6.32 10 7 C10.80824219 6.91234375 11.61648437 6.8246875 12.44921875 6.734375 C17.26249775 7.09444428 20.62088181 8.97015993 24.8125 11.25 C25.58787109 11.64574219 26.36324219 12.04148437 27.16210938 12.44921875 C27.89880859 12.84238281 28.63550781 13.23554687 29.39453125 13.640625 C30.06331299 13.99672852 30.73209473 14.35283203 31.42114258 14.71972656 C33.4144445 16.33606726 33.4877916 17.54565503 34 20 C34.66 20.33 35.32 20.66 36 21 C35.44570313 21.39832031 34.89140625 21.79664062 34.3203125 22.20703125 C33.59585938 22.73683594 32.87140625 23.26664063 32.125 23.8125 C31.40570313 24.33457031 30.68640625 24.85664062 29.9453125 25.39453125 C27.76971345 27.03272777 27.76971345 27.03272777 26 30 C21.37324343 28.6077541 17.35313769 26.70479016 13.125 24.375 C11.97257812 23.74335937 10.82015625 23.11171875 9.6328125 22.4609375 C8.32957031 21.73777344 8.32957031 21.73777344 7 21 C7 20.01 7 19.02 7 18 C6.34 18 5.68 18 5 18 C5 17.34 5 16.68 5 16 C2.69 15.34 0.38 14.68 -2 14 C-2 13.34 -2 12.68 -2 12 C-3.32 11.34 -4.64 10.68 -6 10 C-5.67 8.68 -5.34 7.36 -5 6 C-4.34 6.33 -3.68 6.66 -3 7 C-1.67139075 7.35169068 -0.33841672 7.68770276 1 8 C1 7.34 1 6.68 1 6 C1.66 5.34 2.32 4.68 3 4 C2.01 3.34 1.02 2.68 0 2 C0 1.34 0 0.68 0 0 Z " fill="#E1B869" transform="translate(226,24)"/>
<path d="M0 0 C0.495 0.268125 0.99 0.53625 1.5 0.8125 C3.86368512 1.99974167 3.86368512 1.99974167 5.90625 2.625 C10.84562392 4.24688397 12.7689774 5.83093858 16 10 C18.27379297 11.18742522 20.61015546 12.05308047 23 13 C23.33 13.66 23.66 14.32 24 15 C27.02934491 15.65772428 27.02934491 15.65772428 30 16 C30.625 17.875 30.625 17.875 31 20 C30.34 20.66 29.68 21.32 29 22 C29 22.66 29 23.32 29 24 C28.34 24.33 27.68 24.66 27 25 C27.99 26.98 28.98 28.96 30 31 C23.91120765 30.16016657 19.1302548 28.23508566 13.8125 25.1875 C13.23097168 24.85621094 12.64944336 24.52492188 12.05029297 24.18359375 C7.27373764 21.3602817 2.27439218 18.32715094 -0.4375 13.375 C-1 11 -1 11 0 8 C-0.99 8 -1.98 8 -3 8 C-2.37240135 5.07120629 -1.41377341 2.63904371 0 0 Z " fill="#E5BB6C" transform="translate(66,371)"/>
<path d="M0 0 C2.66692781 0.6095835 4.53725923 0.05794542 7.1875 -0.5 C7.8475 -0.17 8.5075 0.16 9.1875 0.5 C8.8575 2.15 8.5275 3.8 8.1875 5.5 C8.5175 5.17 8.8475 4.84 9.1875 4.5 C9.8475 4.5 10.5075 4.5 11.1875 4.5 C10.80252006 6.73288365 10.29256663 8.33656302 9.0625 10.25 C6.19004099 12.16497267 3.54266417 11.68991495 0.1875 11.5 C0.06375 12.139375 -0.06 12.77875 -0.1875 13.4375 C-0.39375 14.118125 -0.6 14.79875 -0.8125 15.5 C-3.33725462 16.76237731 -5.12450466 16.59856404 -7.9375 16.5625 C-8.84757812 16.55347656 -9.75765625 16.54445313 -10.6953125 16.53515625 C-11.74332031 16.51775391 -11.74332031 16.51775391 -12.8125 16.5 C-12.8125 17.16 -12.8125 17.82 -12.8125 18.5 C-15.6875 18.625 -15.6875 18.625 -18.8125 18.5 C-19.4725 17.84 -20.1325 17.18 -20.8125 16.5 C-20.4825 16.17 -20.1525 15.84 -19.8125 15.5 C-20.8025 14.84 -21.7925 14.18 -22.8125 13.5 C-22.8125 12.51 -22.8125 11.52 -22.8125 10.5 C-24.7925 10.5 -26.7725 10.5 -28.8125 10.5 C-28.8125 9.84 -28.8125 9.18 -28.8125 8.5 C-20.98363369 3.89478452 -12.8623165 2.5 -3.8125 2.5 C-3.8125 1.84 -3.8125 1.18 -3.8125 0.5 C-1.8125 -0.5 -1.8125 -0.5 0 0 Z " fill="#DEB769" transform="translate(230.8125,395.5)"/>
<path d="M0 0 C1.28063464 1.92095196 2.51859612 3.87147991 3.69921875 5.85546875 C10.8303251 17.80602616 18.46768472 27.33041528 31.27734375 33.60546875 C34 35 34 35 35 37 C36.64363134 37.72159424 38.31050386 38.39351421 40 39 C38 40 38 40 35.828125 39.36328125 C30.84723704 37.33319207 26.18826292 35.41674081 22 32 C22 31.01 22 30.02 22 29 C20.948125 28.9175 19.89625 28.835 18.8125 28.75 C14.72952791 27.94679238 12.9877273 26.80665291 10 24 C9.87625 24.5775 9.7525 25.155 9.625 25.75 C8.99351176 28.02335767 8.11141809 29.9253529 7 32 C7.99 32 8.98 32 10 32 C10 32.66 10 33.32 10 34 C10.66 34.33 11.32 34.66 12 35 C11.01 35 10.02 35 9 35 C9.66 36.32 10.32 37.64 11 39 C3.30095567 35.70040957 -2.61599776 27.92955193 -7 21 C-7 20.34 -7 19.68 -7 19 C-6.01 19 -5.02 19 -4 19 C-3.7525 18.21625 -3.505 17.4325 -3.25 16.625 C-1.84610901 13.67682892 -0.99324263 13.0975223 2 12 C1.67 10.7625 1.34 9.525 1 8.25 C0.20108841 5.25408155 0 3.19892281 0 0 Z " fill="#D1AD66" transform="translate(56,347)"/>
<path d="M0 0 C12.76013089 3.83763335 24.09455967 12.54642174 35 20 C34.01 20.495 34.01 20.495 33 21 C30.96855359 20.06553465 28.96466413 19.06775224 27 18 C27 17.34 27 16.68 27 16 C26.071875 16.061875 25.14375 16.12375 24.1875 16.1875 C21 16 21 16 19.125 14.5 C18.75375 14.005 18.3825 13.51 18 13 C17.01 13.33 16.02 13.66 15 14 C15 14.66 15 15.32 15 16 C13.02 16.33 11.04 16.66 9 17 C9 17.66 9 18.32 9 19 C9.99 19 10.98 19 12 19 C12.33 20.65 12.66 22.3 13 24 C13.763125 24.12375 14.52625 24.2475 15.3125 24.375 C18 25 18 25 21 27 C21.33 26.34 21.66 25.68 22 25 C22 25.99 22 26.98 22 28 C22.99 28 23.98 28 25 28 C25 28.99 25 29.98 25 31 C26.65 31.33 28.3 31.66 30 32 C30 32.66 30 33.32 30 34 C33.53854164 36.27477677 35.70947373 35.99082706 39.75 35.125 C40.73484375 34.92132813 41.7196875 34.71765625 42.734375 34.5078125 C43.85585937 34.25644531 43.85585937 34.25644531 45 34 C45.33 34.66 45.66 35.32 46 36 C44.6153832 36.73001583 43.21662355 37.43324582 41.8125 38.125 C40.64654297 38.71667969 40.64654297 38.71667969 39.45703125 39.3203125 C36.19234146 40.22342224 34.96727633 39.56796169 32 38 C30.13926515 36.83430434 28.30762373 35.62146581 26.5 34.375 C19.15879488 29.39668891 11.66906711 24.65519478 3.95703125 20.26953125 C3.04308594 19.74746094 2.12914063 19.22539062 1.1875 18.6875 C0.37667969 18.23761719 -0.43414062 17.78773438 -1.26953125 17.32421875 C-1.84058594 16.88722656 -2.41164063 16.45023437 -3 16 C-3 15.01 -3 14.02 -3 13 C-1.68 12.67 -0.36 12.34 1 12 C1 10.68 1 9.36 1 8 C2.5 6.25 2.5 6.25 4 5 C3.01 5 2.02 5 1 5 C0.67 3.35 0.34 1.7 0 0 Z " fill="#E3BB6C" transform="translate(118,399)"/>
<path d="M0 0 C0.8971875 0.5259375 0.8971875 0.5259375 1.8125 1.0625 C1.8125 1.7225 1.8125 2.3825 1.8125 3.0625 C3.7925 3.0625 5.7725 3.0625 7.8125 3.0625 C8.1425 3.7225 8.4725 4.3825 8.8125 5.0625 C13.25570697 6.98115756 18.03878119 8.29254535 22.8125 9.0625 C22.8125 9.7225 22.8125 10.3825 22.8125 11.0625 C23.8025 11.3925 24.7925 11.7225 25.8125 12.0625 C25.4825 12.7225 25.1525 13.3825 24.8125 14.0625 C23.4925 14.0625 22.1725 14.0625 20.8125 14.0625 C18.51616176 17.50700737 18.27233515 20.00062283 17.8125 24.0625 C14.85074877 23.44972388 13.43191217 22.80877478 10.8125 21.0625 C10.8125 20.4025 10.8125 19.7425 10.8125 19.0625 C9.1625 18.7325 7.5125 18.4025 5.8125 18.0625 C5.8125 17.0725 5.8125 16.0825 5.8125 15.0625 C4.94625 14.959375 4.08 14.85625 3.1875 14.75 C-0.45714872 14.00757156 -3.06796305 13.09382639 -6.1875 11.0625 C-7.0625 8.375 -7.0625 8.375 -7.1875 6.0625 C-8.1775 6.0625 -9.1675 6.0625 -10.1875 6.0625 C-10.1875 5.4025 -10.1875 4.7425 -10.1875 4.0625 C-8.2075 3.7325 -6.2275 3.4025 -4.1875 3.0625 C-4.5175 2.0725 -4.8475 1.0825 -5.1875 0.0625 C-2.1875 -0.9375 -2.1875 -0.9375 0 0 Z " fill="#E7BD6C" transform="translate(137.1875,411.9375)"/>
<path d="M0 0 C0.33 0.66 0.66 1.32 1 2 C0.34 2 -0.32 2 -1 2 C-1 2.66 -1 3.32 -1 4 C0.98 4 2.96 4 5 4 C5.33 4.99 5.66 5.98 6 7 C7.485 7.99 7.485 7.99 9 9 C8.67 10.65 8.34 12.3 8 14 C5.41932437 14.69918305 2.83627153 15.38461049 0.25 16.0625 C-0.47960937 16.26166016 -1.20921875 16.46082031 -1.9609375 16.66601562 C-5.71031044 17.63744407 -8.30274238 18.15449387 -12 17 C-12 17.66 -12 18.32 -12 19 C-13.98 18.67 -15.96 18.34 -18 18 C-16.94124926 14.59687262 -15.99097846 11.98646769 -14 9 C-17.63 9.33 -21.26 9.66 -25 10 C-22.23736046 8.15824031 -19.99241374 7.16491128 -16.89453125 6.0546875 C-15.42016602 5.52294922 -15.42016602 5.52294922 -13.91601562 4.98046875 C-12.89185547 4.61566406 -11.86769531 4.25085938 -10.8125 3.875 C-9.25885742 3.31619141 -9.25885742 3.31619141 -7.67382812 2.74609375 C-5.11715995 1.82710703 -2.55920381 0.91189657 0 0 Z " fill="#DFB667" transform="translate(203,402)"/>
<path d="M0 0 C3.19827981 1.16902641 5.77841847 3.099685 8.515625 5.078125 C9.66958526 5.89592667 10.82453234 6.71233769 11.98046875 7.52734375 C12.53976074 7.92228027 13.09905273 8.3172168 13.67529297 8.72412109 C16.79348454 10.88876068 20.0229815 12.8571064 23.265625 14.828125 C22.275625 15.488125 21.285625 16.148125 20.265625 16.828125 C19.605625 15.838125 18.945625 14.848125 18.265625 13.828125 C16.31959226 13.23742486 16.31959226 13.23742486 14.265625 12.828125 C13.275625 12.168125 12.285625 11.508125 11.265625 10.828125 C8.94174553 10.43424712 6.60768751 10.09326415 4.265625 9.828125 C4.265625 10.818125 4.265625 11.808125 4.265625 12.828125 C5.255625 12.828125 6.245625 12.828125 7.265625 12.828125 C7.265625 14.478125 7.265625 16.128125 7.265625 17.828125 C6.605625 17.828125 5.945625 17.828125 5.265625 17.828125 C7.98167215 20.70232623 7.98167215 20.70232623 11.265625 22.828125 C11.265625 23.818125 11.265625 24.808125 11.265625 25.828125 C7.16720095 24.41929173 3.80970897 22.33774143 0.23046875 19.94921875 C-1.76348435 18.81151589 -3.4927275 18.27246047 -5.734375 17.828125 C-4.744375 17.168125 -3.754375 16.508125 -2.734375 15.828125 C-1.49158036 11.8737784 -1.65369732 7.94268653 -1.734375 3.828125 C-2.394375 4.488125 -3.054375 5.148125 -3.734375 5.828125 C-9.87818092 9.16714996 -15.8209353 9.49891359 -22.734375 9.828125 C-20.71257126 7.80632126 -19.4920847 7.1804054 -16.890625 6.13671875 C-16.13910156 5.83185547 -15.38757813 5.52699219 -14.61328125 5.21289062 C-13.82824219 4.90029297 -13.04320312 4.58769531 -12.234375 4.265625 C-10.68207434 3.63986176 -9.12998118 3.01358347 -7.578125 2.38671875 C-6.88912109 2.11142334 -6.20011719 1.83612793 -5.49023438 1.55249023 C-1.39250123 -0.13799562 -1.39250123 -0.13799562 0 0 Z " fill="#C19654" transform="translate(192.734375,1.171875)"/>
<path d="M0 0 C0.66 0.33 1.32 0.66 2 1 C1.67 1.66 1.34 2.32 1 3 C1.99 3 2.98 3 4 3 C4 3.66 4 4.32 4 5 C6.475 5.495 6.475 5.495 9 6 C9 7.32 9 8.64 9 10 C9.33 9.67 9.66 9.34 10 9 C11.66617115 8.95936168 13.33388095 8.957279 15 9 C11.76120118 12.6385498 8.07740137 14.88216301 3.8125 17.125 C3.14919678 17.47755859 2.48589355 17.83011719 1.80249023 18.19335938 C-3.06841149 20.70262975 -7.54291006 22.23409264 -13 23 C-12.67 22.01 -12.34 21.02 -12 20 C-9.03 19.67 -6.06 19.34 -3 19 C-2.34 17.02 -1.68 15.04 -1 13 C-1.66 13 -2.32 13 -3 13 C-3 13.66 -3 14.32 -3 15 C-3.66 14.67 -4.32 14.34 -5 14 C-4.67 12.35 -4.34 10.7 -4 9 C-4.763125 9 -5.52625 9 -6.3125 9 C-9.54166667 9 -12.77083333 9 -16 9 C-16 9.66 -16 10.32 -16 11 C-20.02040985 11.69584017 -23.08263419 12.1700097 -27 11 C-26.24976563 10.75765625 -25.49953125 10.5153125 -24.7265625 10.265625 C-12.996073 6.57428053 -12.996073 6.57428053 -2 1.1875 C-1.34 0.795625 -0.68 0.40375 0 0 Z " fill="#DDB668" transform="translate(243,387)"/>
<path d="M0 0 C3.33333333 1.66666667 6.66666667 3.33333333 10 5 C10 5.66 10 6.32 10 7 C11.423125 6.938125 11.423125 6.938125 12.875 6.875 C16 7 16 7 18 9 C17.34 9 16.68 9 16 9 C16 9.763125 16 10.52625 16 11.3125 C16 14.54166667 16 17.77083333 16 21 C14.68 21.33 13.36 21.66 12 22 C11.67 21.34 11.34 20.68 11 20 C9.68 20 8.36 20 7 20 C7 19.34 7 18.68 7 18 C6.34 18 5.68 18 5 18 C5 17.34 5 16.68 5 16 C2.69 15.34 0.38 14.68 -2 14 C-2 13.34 -2 12.68 -2 12 C-3.32 11.34 -4.64 10.68 -6 10 C-5.67 8.68 -5.34 7.36 -5 6 C-4.34 6.33 -3.68 6.66 -3 7 C-1.67139075 7.35169068 -0.33841672 7.68770276 1 8 C1 7.34 1 6.68 1 6 C1.66 5.34 2.32 4.68 3 4 C2.01 3.34 1.02 2.68 0 2 C0 1.34 0 0.68 0 0 Z " fill="#E1B869" transform="translate(226,24)"/>
<path d="M0 0 C5.57980436 0.07299163 9.05652794 2.05992409 13.375 5.4375 C12.055 7.0875 10.735 8.7375 9.375 10.4375 C6.9375 10.0625 6.9375 10.0625 4.375 9.4375 C4.045 8.7775 3.715 8.1175 3.375 7.4375 C3.71944881 9.91016765 3.71944881 9.91016765 4.375 12.4375 C5.035 12.7675 5.695 13.0975 6.375 13.4375 C6.375 14.0975 6.375 14.7575 6.375 15.4375 C7.15875 15.581875 7.9425 15.72625 8.75 15.875 C11.375 16.4375 11.375 16.4375 13.375 17.4375 C13.375 18.0975 13.375 18.7575 13.375 19.4375 C14.035 19.4375 14.695 19.4375 15.375 19.4375 C15.375 20.0975 15.375 20.7575 15.375 21.4375 C10.60927524 20.04265373 6.59117753 17.99705556 2.375 15.4375 C1.28574219 14.79941406 0.19648438 14.16132812 -0.92578125 13.50390625 C-2.11764347 12.79503691 -3.30904576 12.08539375 -4.5 11.375 C-5.63179687 10.70339844 -6.76359375 10.03179687 -7.9296875 9.33984375 C-10.625 7.4375 -10.625 7.4375 -11.625 4.4375 C-10.449375 4.004375 -10.449375 4.004375 -9.25 3.5625 C-0.99883178 0.02628505 -0.99883178 0.02628505 0 0 Z " fill="#D8AC5F" transform="translate(217.625,22.5625)"/>
<path d="M0 0 C0.33 0 0.66 0 1 0 C1.27145248 9.70658064 0.53744061 19.12497113 -0.48129272 28.7644043 C-0.95255298 33.23326815 -1.40075371 37.70442483 -1.84765625 42.17578125 C-1.94206497 43.11874054 -2.03647369 44.06169983 -2.13374329 45.03323364 C-3.48998606 58.74709596 -4.57808741 72.48476627 -5.69238281 86.2199707 C-5.77271255 87.20584671 -5.8530423 88.19172272 -5.93580627 89.20747375 C-6.08492404 91.04125471 -6.23276873 92.87513988 -6.37901306 94.70915222 C-6.82031726 100.15315991 -7.37333047 105.57410053 -8 111 C-8.33 111 -8.66 111 -9 111 C-9.02894547 107.54168414 -9.04678 104.08339928 -9.0625 100.625 C-9.07087891 99.64015625 -9.07925781 98.6553125 -9.08789062 97.640625 C-9.09111328 96.69960938 -9.09433594 95.75859375 -9.09765625 94.7890625 C-9.10289307 93.91975098 -9.10812988 93.05043945 -9.11352539 92.15478516 C-9 90 -9 90 -8 88 C-7.84828016 86.59537378 -7.75099773 85.18462509 -7.68359375 83.7734375 C-7.64169922 82.91331055 -7.59980469 82.05318359 -7.55664062 81.16699219 C-7.51732422 80.24563477 -7.47800781 79.32427734 -7.4375 78.375 C-7.39431641 77.43817383 -7.35113281 76.50134766 -7.30664062 75.53613281 C-6.99675168 68.30293138 -6.94622926 61.09722883 -7.0625 53.859375 C-7 51 -7 51 -6 50 C-5.79663084 48.46266386 -5.65274891 46.91735808 -5.53515625 45.37109375 C-5.41817383 43.94120117 -5.41817383 43.94120117 -5.29882812 42.48242188 C-5.14340892 40.47995456 -4.98971361 38.47735256 -4.83789062 36.47460938 C-4.42726317 31.49032649 -3.80799125 26.85654178 -2.47924805 22.03930664 C-1.51232068 17.92481642 -1.2475893 13.70231866 -0.875 9.5 C-0.78863281 8.5821875 -0.70226563 7.664375 -0.61328125 6.71875 C-0.40336234 4.479615 -0.19905091 2.24012273 0 0 Z " fill="#8F7A51" transform="translate(60,198)"/>
<path d="M0 0 C0 2.97 0 5.94 0 9 C-4.95 10.485 -4.95 10.485 -10 12 C-10 12.33 -10 12.66 -10 13 C-12.31 13.33 -14.62 13.66 -17 14 C-16.67 12.02 -16.34 10.04 -16 8 C-19.13349732 6.95550089 -19.98968256 7.06576355 -23 8 C-23 7.34 -23 6.68 -23 6 C-23.99 5.67 -24.98 5.34 -26 5 C-25.04287109 4.81824219 -25.04287109 4.81824219 -24.06640625 4.6328125 C-23.24011719 4.46523438 -22.41382812 4.29765625 -21.5625 4.125 C-20.73878906 3.96257813 -19.91507812 3.80015625 -19.06640625 3.6328125 C-18.38449219 3.42398438 -17.70257813 3.21515625 -17 3 C-16.67 2.34 -16.34 1.68 -16 1 C-10.63135108 -0.72888694 -5.51096679 -1.45025442 0 0 Z " fill="#F3CB87" transform="translate(130,30)"/>
<path d="M0 0 C-0.639375 0.103125 -1.27875 0.20625 -1.9375 0.3125 C-2.618125 0.539375 -3.29875 0.76625 -4 1 C-4.33 1.99 -4.66 2.98 -5 4 C-6.98 4.33 -8.96 4.66 -11 5 C-10.67 5.66 -10.34 6.32 -10 7 C-8.68 6.67 -7.36 6.34 -6 6 C-6 6.66 -6 7.32 -6 8 C-5.34 8 -4.68 8 -4 8 C-4 9.65 -4 11.3 -4 13 C0.47427924 13.08948558 4.60563789 12.85743651 9 12 C5.93092032 14.04605312 3.13916557 15.1595477 -0.3125 16.4375 C-3.74793354 17.71032613 -7.01970842 19.00993603 -10.29296875 20.66015625 C-13 22 -13 22 -15 22 C-15 21.01 -15 20.02 -15 19 C-13.35 18.34 -11.7 17.68 -10 17 C-11.32 16.34 -12.64 15.68 -14 15 C-14 14.01 -14 13.02 -14 12 C-13.34 11.67 -12.68 11.34 -12 11 C-14.475 10.01 -14.475 10.01 -17 9 C-17 8.34 -17 7.68 -17 7 C-17.66 6.67 -18.32 6.34 -19 6 C-4.51048951 -1.5034965 -4.51048951 -1.5034965 0 0 Z " fill="#F2C886" transform="translate(118,30)"/>
<path d="M0 0 C3.83794193 2.59151965 6.21804859 4.3277277 7.20703125 8.95703125 C7.44115769 10.5711644 7.64055942 12.19056367 7.8125 13.8125 C7.92231201 14.70251709 8.03212402 15.59253418 8.14526367 16.50952148 C9.10671826 25.16551527 9.48940538 33.86338207 9.8125 42.5625 C9.84018463 43.23987213 9.86786926 43.91724426 9.89639282 44.61514282 C10.31025676 55.3777242 9.94856107 65.84655725 6 76 C5.67 76 5.34 76 5 76 C4.69740957 68.82188268 5.26112976 61.81740702 6 54.6875 C7.74496276 37.35816211 7.96027538 20.8112829 1.0234375 4.51171875 C0 2 0 2 0 0 Z " fill="#988158" transform="translate(287,86)"/>
<path d="M0 0 C0.33 0 0.66 0 1 0 C1.32258065 9.35483871 1.32258065 9.35483871 -1 14 C-3.625 15.375 -3.625 15.375 -6 16 C-6.226875 15.360625 -6.45375 14.72125 -6.6875 14.0625 C-7.8253158 11.7768844 -7.8253158 11.7768844 -10.3125 11.3125 C-11.6428125 11.1578125 -11.6428125 11.1578125 -13 11 C-13.86625 10.79375 -14.7325 10.5875 -15.625 10.375 C-18.14042413 9.79107629 -18.14042413 9.79107629 -21 11 C-21 9.68 -21 8.36 -21 7 C-17.0186217 5.6728739 -13.14954773 5.93084087 -9 6 C-8.67 5.34 -8.34 4.68 -8 4 C-5.68191636 2.96514123 -3.34824702 1.9644586 -1 1 C-0.67 0.67 -0.34 0.34 0 0 Z " fill="#F8D59B" transform="translate(191,4)"/>
<path d="M0 0 C0.33 0 0.66 0 1 0 C1.12245448 8.42809945 0.78215201 16.67436598 0 25.0625 C-0.91916651 35.76942084 -1.12596278 46.36492845 -1.03125 57.10668945 C-0.95974505 66.11312036 -1.28192184 75.02402297 -2 84 C-4.00677179 80.62274991 -4.37156372 77.77040952 -4.625 73.875 C-4.69976562 72.82054687 -4.77453125 71.76609375 -4.8515625 70.6796875 C-5.22830005 61.34056201 -4.63740245 52.35583531 -3.625 43.0625 C-2.12139527 28.72605272 -0.97675093 14.38296426 0 0 Z " fill="#8A7650" transform="translate(40,253)"/>
<path d="M0 0 C1.65 0 3.3 0 5 0 C2.77724194 2.3419596 0.41422261 4.21860503 -2.1875 6.125 C-10.0209888 12.18799295 -15.63552901 19.12417678 -20 28 C-20.99 28 -21.98 28 -23 28 C-23.58163265 18.1122449 -23.58163265 18.1122449 -20 14 C-19.01 14 -18.02 14 -17 14 C-16.34 12.68 -15.68 11.36 -15 10 C-14.67 10.66 -14.34 11.32 -14 12 C-13.01 11.67 -12.02 11.34 -11 11 C-10.26676204 8.98491642 -10.26676204 8.98491642 -10 7 C-8.68 7 -7.36 7 -6 7 C-6 6.01 -6 5.02 -6 4 C-5.01 4 -4.02 4 -3 4 C-3 3.34 -3 2.68 -3 2 C-2.01 2 -1.02 2 0 2 C0 1.34 0 0.68 0 0 Z " fill="#E8C37C" transform="translate(98,52)"/>
<path d="M0 0 C1.32 0.33 2.64 0.66 4 1 C3.38011935 9.83329931 0.48378784 15.05652781 -6 21 C-9 19 -9 19 -9.75 16.125 C-10.13793103 11.27586207 -10.13793103 11.27586207 -9 9 C-7.8553125 8.5978125 -7.8553125 8.5978125 -6.6875 8.1875 C-2.70869508 6.42942341 -1.91791461 3.83582922 0 0 Z " fill="#EEC272" transform="translate(75,58)"/>
<path d="M0 0 C0.33 0 0.66 0 1 0 C1.12367515 10.63606266 0.95266911 21.24492767 0.5625 31.875 C0.52326416 33.0098584 0.48402832 34.1447168 0.44360352 35.31396484 C0.40162842 36.38340332 0.35965332 37.4528418 0.31640625 38.5546875 C0.27974854 39.50843262 0.24309082 40.46217773 0.20532227 41.44482422 C0.02022141 43.74835043 -0.35925477 45.78556887 -1 48 C-1.66 48 -2.32 48 -3 48 C-3 54.6 -3 61.2 -3 68 C-3.66 68 -4.32 68 -5 68 C-5 70.31 -5 72.62 -5 75 C-5.33 75 -5.66 75 -6 75 C-5.41001044 58.49932414 -4.01395508 42.12015185 -2.4375 25.6875 C-2.20072856 23.18168247 -1.96439782 20.67582327 -1.72851562 18.16992188 C-1.15740678 12.11279289 -0.58092338 6.05619518 0 0 Z " fill="#8C7752" transform="translate(291,168)"/>
<path d="M0 0 C0.66 0 1.32 0 2 0 C2 0.66 2 1.32 2 2 C4.97 2.495 4.97 2.495 8 3 C7.01 4.485 7.01 4.485 6 6 C6.45375 6.45375 6.9075 6.9075 7.375 7.375 C8.58333333 8.58333333 9.79166667 9.79166667 11 11 C8.69 11.33 6.38 11.66 4 12 C4 12.99 4 13.98 4 15 C3.01 15.33 2.02 15.66 1 16 C0.6596875 15.1646875 0.6596875 15.1646875 0.3125 14.3125 C-1.35896766 11.36753316 -3.55276352 9.31843456 -6 7 C-4.6875 4.5 -4.6875 4.5 -3 2 C-2.01 2 -1.02 2 0 2 C0 1.34 0 0.68 0 0 Z " fill="#F0C783" transform="translate(99,37)"/>
<path d="M0 0 C0.495 0.268125 0.99 0.53625 1.5 0.8125 C3.88045891 2.00757819 3.88045891 2.00757819 6.01171875 2.66015625 C6.72972656 2.89605469 7.44773437 3.13195312 8.1875 3.375 C9.22970703 3.69597656 9.22970703 3.69597656 10.29296875 4.0234375 C12 5 12 5 12.73828125 7.1015625 C12.82464844 7.72804688 12.91101563 8.35453125 13 9 C12.05125 9.433125 11.1025 9.86625 10.125 10.3125 C6.79958063 11.79302201 6.79958063 11.79302201 5 15 C3.35 14.67 1.7 14.34 0 14 C0 12 0 10 0 8 C-0.99 8 -1.98 8 -3 8 C-2.37240135 5.07120629 -1.41377341 2.63904371 0 0 Z " fill="#EBBE68" transform="translate(66,371)"/>
<path d="M0 0 C1.65 0.33 3.3 0.66 5 1 C5 1.99 5 2.98 5 4 C5.66 4 6.32 4 7 4 C7.33 5.98 7.66 7.96 8 10 C7.34 10 6.68 10 6 10 C6.33 10.99 6.66 11.98 7 13 C4 15 4 15 1.3125 14.625 C0.549375 14.41875 -0.21375 14.2125 -1 14 C-0.34 12.68 0.32 11.36 1 10 C-0.65 9.67 -2.3 9.34 -4 9 C-4 8.34 -4 7.68 -4 7 C-4.99 7 -5.98 7 -7 7 C-6.67 6.01 -6.34 5.02 -6 4 C-5.01 4 -4.02 4 -3 4 C-1.29467677 2.05990478 -1.29467677 2.05990478 0 0 Z " fill="#E7BE6F" transform="translate(251,383)"/>
<path d="M0 0 C1.32 0.33 2.64 0.66 4 1 C4.33 2.65 4.66 4.3 5 6 C5.66 6 6.32 6 7 6 C7.33 5.34 7.66 4.68 8 4 C8.33 4.99 8.66 5.98 9 7 C8.03114628 8.68496298 7.03013277 10.35178756 6 12 C6 12.99 6 13.98 6 15 C3.36 14.67 0.72 14.34 -2 14 C-2 13.01 -2 12.02 -2 11 C-3.65 10.67 -5.3 10.34 -7 10 C-6.01 9.34 -5.02 8.68 -4 8 C-4 7.34 -4 6.68 -4 6 C-3.34 6 -2.68 6 -2 6 C-2 5.01 -2 4.02 -2 3 C-1.34 2.67 -0.68 2.34 0 2 C0 1.34 0 0.68 0 0 Z " fill="#EABE6D" transform="translate(114,398)"/>
<path d="M0 0 C0.33 0 0.66 0 1 0 C1.32529117 43.39384253 1.32529117 43.39384253 -2 54 C-2.99 54.495 -2.99 54.495 -4 55 C-3.46574179 36.57730324 -1.84890232 18.32726594 0 0 Z " fill="#A89360" transform="translate(284,246)"/>
<path d="M0 0 C0.33 0 0.66 0 1 0 C1.02480163 5.15950168 1.04290809 10.31896831 1.05493164 15.47851562 C1.05994651 17.23210251 1.06676002 18.98568524 1.07543945 20.73925781 C1.08763 23.2662865 1.09325688 25.79325968 1.09765625 28.3203125 C1.10281754 29.09867462 1.10797882 29.87703674 1.11329651 30.6789856 C1.1137272 34.9003949 0.8358664 38.84091388 0 43 C-0.33 43 -0.66 43 -1 43 C-1.66 47.29 -2.32 51.58 -3 56 C-3.33 56 -3.66 56 -4 56 C-3.45134827 37.25124592 -1.81752812 18.65915741 0 0 Z " fill="#8C784F" transform="translate(47,175)"/>
<path d="M0 0 C3.79303725 1.00193437 6.71536341 1.81024227 10 4 C10.33 3.34 10.66 2.68 11 2 C11 2.99 11 3.98 11 5 C11.99 5 12.98 5 14 5 C14 5.99 14 6.98 14 8 C15.65 8.33 17.3 8.66 19 9 C19 9.66 19 10.32 19 11 C22.53854164 13.27477677 24.70947373 12.99082706 28.75 12.125 C30.22726563 11.81949219 30.22726563 11.81949219 31.734375 11.5078125 C32.48203125 11.34023438 33.2296875 11.17265625 34 11 C34.495 11.99 34.495 11.99 35 13 C33.6153832 13.73001583 32.21662355 14.43324582 30.8125 15.125 C30.03519531 15.51945312 29.25789063 15.91390625 28.45703125 16.3203125 C25.18684566 17.22494254 23.97435932 16.57118828 21 15 C19.0553032 13.7940707 17.13998396 12.53998905 15.25 11.25 C13.68765625 10.18845703 13.68765625 10.18845703 12.09375 9.10546875 C11.0728125 8.41066406 10.051875 7.71585937 9 7 C6.51824661 5.37222074 4.03453138 3.74764719 1.546875 2.12890625 C1.03640625 1.75636719 0.5259375 1.38382812 0 1 C0 0.67 0 0.34 0 0 Z " fill="#A08B5F" transform="translate(129,422)"/>
<path d="M0 0 C-0.33 1.98 -0.66 3.96 -1 6 C-1.66 6 -2.32 6 -3 6 C-3.33 7.32 -3.66 8.64 -4 10 C-4.66 10 -5.32 10 -6 10 C-6 10.99 -6 11.98 -6 13 C-8.5 14.6875 -8.5 14.6875 -11 16 C-11.33 15.34 -11.66 14.68 -12 14 C-11.67 13.01 -11.34 12.02 -11 11 C-11.66 11 -12.32 11 -13 11 C-11.56179187 5.96627156 -9.09754485 4.01044111 -5 1 C-2 0 -2 0 0 0 Z " fill="#EABE69" transform="translate(276,371)"/>
<path d="M0 0 C0.33 0 0.66 0 1 0 C1.40831058 11.00737278 0.15413718 21.8244262 -1 32.75 C-1.19326528 34.62233843 -1.38597794 36.49473399 -1.578125 38.3671875 C-2.04571754 42.91214177 -2.52077228 47.45625845 -3 52 C-3.33 52 -3.66 52 -4 52 C-4.05848483 47.66672416 -4.09375916 43.33355115 -4.125 39 C-4.14175781 37.77925781 -4.15851563 36.55851562 -4.17578125 35.30078125 C-4.21113884 28.75962775 -3.80607587 23.26814567 -2 17 C-1.52144617 14.01053195 -1.19324352 11.0102707 -0.875 8 C-0.78863281 7.22527344 -0.70226562 6.45054687 -0.61328125 5.65234375 C-0.40399448 3.76876279 -0.20129373 1.88445192 0 0 Z " fill="#84704B" transform="translate(302,212)"/>
<path d="M0 0 C0.33 0 0.66 0 1 0 C1.45930232 9.35615833 0.66696749 18.45822146 -0.375 27.75 C-0.50108643 28.91708496 -0.62717285 30.08416992 -0.75708008 31.28662109 C-0.88622803 32.38312988 -1.01537598 33.47963867 -1.1484375 34.609375 C-1.26364746 35.59905273 -1.37885742 36.58873047 -1.49755859 37.60839844 C-2 40 -2 40 -4 42 C-3.88968914 37.79114753 -3.75916008 33.58315446 -3.625 29.375 C-3.5940625 28.18519531 -3.563125 26.99539062 -3.53125 25.76953125 C-3.49257813 24.61582031 -3.45390625 23.46210938 -3.4140625 22.2734375 C-3.3826416 21.21560059 -3.3512207 20.15776367 -3.31884766 19.06787109 C-2.97930438 15.80087205 -2.10819878 13.08217785 -1 10 C-0.73366136 8.21603365 -0.52077069 6.42283846 -0.375 4.625 C-0.30023438 3.75101563 -0.22546875 2.87703125 -0.1484375 1.9765625 C-0.09945312 1.32429687 -0.05046875 0.67203125 0 0 Z " fill="#DDBE7E" transform="translate(60,184)"/>
<path d="M0 0 C-0.639375 0.103125 -1.27875 0.20625 -1.9375 0.3125 C-2.618125 0.539375 -3.29875 0.76625 -4 1 C-4.33 1.99 -4.66 2.98 -5 4 C-6.98 4.33 -8.96 4.66 -11 5 C-10.67 5.66 -10.34 6.32 -10 7 C-8.68 6.67 -7.36 6.34 -6 6 C-6 6.66 -6 7.32 -6 8 C-5.34 8 -4.68 8 -4 8 C-4 8.66 -4 9.32 -4 10 C-7.3171411 11.4216319 -10.44219804 12.39009109 -14 13 C-13.34 12.34 -12.68 11.68 -12 11 C-14.475 10.01 -14.475 10.01 -17 9 C-17 8.34 -17 7.68 -17 7 C-17.66 6.67 -18.32 6.34 -19 6 C-4.51048951 -1.5034965 -4.51048951 -1.5034965 0 0 Z " fill="#F2C97D" transform="translate(118,30)"/>
<path d="M0 0 C1.66061724 2.89785225 2.20674772 4.8158015 2.03515625 8.140625 C1.92152635 13.14034073 2.59431602 17.83208042 3.4375 22.75 C3.57220703 23.57371094 3.70691406 24.39742188 3.84570312 25.24609375 C4.4948712 29.17910228 5.18306519 33.0977483 6 37 C5.34 36.67 4.68 36.34 4 36 C4 35.01 4 34.02 4 33 C3.34 33 2.68 33 2 33 C-2.47866916 22.42325588 -0.84261778 11.15177334 0 0 Z " fill="#968057" transform="translate(50,310)"/>
<path d="M0 0 C-1 2 -1 2 -4.24609375 3.21875 C-5.64022193 3.65554993 -7.03760514 4.08205032 -8.4375 4.5 C-9.16163086 4.71994629 -9.88576172 4.93989258 -10.63183594 5.16650391 C-25.31956525 9.54665303 -25.31956525 9.54665303 -31 8 C-27.23258427 6.68643178 -23.46066969 5.38682285 -19.68408203 4.09985352 C-18.40054933 3.66028974 -17.11829943 3.21696119 -15.83740234 2.76977539 C-13.99399574 2.12694276 -12.14547762 1.4988278 -10.296875 0.87109375 C-9.18666992 0.48880615 -8.07646484 0.10651855 -6.93261719 -0.28735352 C-4.06143638 -0.98507053 -2.71357513 -1.04212832 0 0 Z " fill="#A8936F" transform="translate(150,20)"/>
<path d="M0 0 C5.48102359 3.6020277 5.48102359 3.6020277 6.77636719 7.09130859 C7.27638918 9.62234237 7.6076145 12.1213904 7.875 14.6875 C7.98884033 15.60490967 8.10268066 16.52231934 8.2199707 17.4675293 C9.22711297 26.31409035 9.29301955 35.11174029 9 44 C8.67 44 8.34 44 8 44 C7.95512451 43.36610352 7.91024902 42.73220703 7.86401367 42.07910156 C6.76574037 25.314513 6.76574037 25.314513 3 9 C2.71640625 8.10539062 2.4328125 7.21078125 2.140625 6.2890625 C1.45396884 4.18374879 0.7315485 2.09013858 0 0 Z " fill="#6E5D42" transform="translate(287,86)"/>
<path d="M0 0 C1.98 0 3.96 0 6 0 C6 0.99 6 1.98 6 3 C8.31 3.33 10.62 3.66 13 4 C13 4.66 13 5.32 13 6 C14.32 6.33 15.64 6.66 17 7 C17 7.66 17 8.32 17 9 C17.78375 9.144375 18.5675 9.28875 19.375 9.4375 C22 10 22 10 24 11 C24 11.66 24 12.32 24 13 C24.66 13 25.32 13 26 13 C26 13.66 26 14.32 26 15 C21.23634667 13.60576 17.21081389 11.56666217 13 9 C11.89914063 8.33871094 10.79828125 7.67742188 9.6640625 6.99609375 C8.46310739 6.26894593 7.26259031 5.5410742 6.0625 4.8125 C5.47009521 4.45526855 4.87769043 4.09803711 4.26733398 3.72998047 C2.82746029 2.84782361 1.41118885 1.92735268 0 1 C0 0.67 0 0.34 0 0 Z " fill="#937E54" transform="translate(207,29)"/>
<path d="M0 0 C3.26868324 1.48267981 6.34244684 3.24936249 9.4375 5.0625 C10.26443359 5.53494141 11.09136719 6.00738281 11.94335938 6.49414062 C13.96821685 7.65287409 15.98657866 8.82154414 18 10 C18 10.33 18 10.66 18 11 C14.37314539 11.20149192 12.08771148 10.95555061 9 9 C8.54625 8.505 8.0925 8.01 7.625 7.5 C3.2178734 3.43188314 -2.39338791 3.80666855 -8 4 C-8.33 2.68 -8.66 1.36 -9 0 C-5.91824738 -1.54087631 -3.20207778 -0.88408293 0 0 Z " fill="#997F52" transform="translate(223,20)"/>
<path d="M0 0 C0.99 0.33 1.98 0.66 3 1 C-0.50372594 8.4022379 -5.58653063 13.99066298 -12 19 C-12.3125 16.1875 -12.3125 16.1875 -12 13 C-9.61107499 11.11400657 -8.08148442 10 -5 10 C-5 9.01 -5 8.02 -5 7 C-4.34 7 -3.68 7 -3 7 C-2.67 5.68 -2.34 4.36 -2 3 C-1.34 3 -0.68 3 0 3 C0 2.01 0 1.02 0 0 Z " fill="#99885A" transform="translate(275,374)"/>
<path d="M0 0 C0.66 0 1.32 0 2 0 C2.25385233 8.13972783 1.4597933 16.04890144 0.5 24.125 C0.35691406 25.36765625 0.21382813 26.6103125 0.06640625 27.890625 C-0.28402616 30.92770585 -0.63960133 33.9640885 -1 37 C-1.33 37 -1.66 37 -2 37 C-2.02895225 33.70835171 -2.0467823 30.41673601 -2.0625 27.125 C-2.07506836 25.71927734 -2.07506836 25.71927734 -2.08789062 24.28515625 C-2.09111328 23.38925781 -2.09433594 22.49335938 -2.09765625 21.5703125 C-2.10289307 20.74289551 -2.10812988 19.91547852 -2.11352539 19.06298828 C-2 17 -2 17 -1 15 C-0.76827173 12.45384991 -0.58105471 9.92603775 -0.4375 7.375 C-0.39431641 6.66859375 -0.35113281 5.9621875 -0.30664062 5.234375 C-0.20055249 3.48981463 -0.09977111 1.74493303 0 0 Z " fill="#DEBC80" transform="translate(65,120)"/>
<path d="M0 0 C0.33 0 0.66 0 1 0 C1.25517815 8.97494646 0.4531786 17.77730588 -0.5 26.6875 C-0.64504539 28.08262894 -0.78957994 29.47781108 -0.93359375 30.87304688 C-1.284065 34.24925324 -1.63964186 37.62483708 -2 41 C-2.33 41 -2.66 41 -3 41 C-3.02894547 37.54168414 -3.04678 34.08339928 -3.0625 30.625 C-3.07087891 29.64015625 -3.07925781 28.6553125 -3.08789062 27.640625 C-3.09111328 26.69960938 -3.09433594 25.75859375 -3.09765625 24.7890625 C-3.10289307 23.91975098 -3.10812988 23.05043945 -3.11352539 22.15478516 C-3 20 -3 20 -2 18 C-1.78308608 16.62793479 -1.61076837 15.24860728 -1.46484375 13.8671875 C-1.37783203 13.06152344 -1.29082031 12.25585938 -1.20117188 11.42578125 C-1.11416016 10.58402344 -1.02714844 9.74226563 -0.9375 8.875 C-0.80118164 7.60076172 -0.80118164 7.60076172 -0.66210938 6.30078125 C-0.4379632 4.2008855 -0.21853552 2.10048707 0 0 Z " fill="#746645" transform="translate(54,268)"/>
<path d="M0 0 C4.1693255 2.19515724 6.69721354 4.70269052 9.625 8.375 C10.38039063 9.31085938 11.13578125 10.24671875 11.9140625 11.2109375 C13.8115429 13.74801804 15.55577156 16.17939278 17 19 C16.67 19.66 16.34 20.32 16 21 C15.01 20.67 14.02 20.34 13 20 C12.0078125 17.96875 12.0078125 17.96875 11.125 15.5 C10.18431595 13.06605482 10.18431595 13.06605482 9 11 C6.3912295 9.7886547 6.3912295 9.7886547 4 10 C4 8.02 4 6.04 4 4 C2.68 4 1.36 4 0 4 C0 2.68 0 1.36 0 0 Z " fill="#958251" transform="translate(282,56)"/>
<path d="M0 0 C0.33 0 0.66 0 1 0 C1.68425895 11.78445963 -0.33246267 23.36863143 -2 35 C-2.33 35 -2.66 35 -3 35 C-2.88958177 30.47868775 -2.75907813 25.95816761 -2.625 21.4375 C-2.5940625 20.16068359 -2.563125 18.88386719 -2.53125 17.56835938 C-2.3390309 11.40132989 -2.15074689 5.81401091 0 0 Z " fill="#DCBE80" transform="translate(302,200)"/>
<path d="M0 0 C-2.39793129 4.09058867 -5.52725046 5.81969109 -10 7 C-13.99390333 7.51920743 -17.97799608 7.808476 -22 8 C-19.31055505 5.31055505 -16.15970129 4.2585845 -12.6875 2.875 C-12.02298828 2.59785156 -11.35847656 2.32070312 -10.67382812 2.03515625 C-6.99055328 0.55601719 -3.97825998 -0.3539651 0 0 Z " fill="#CBB68C" transform="translate(192,3)"/>
<path d="M0 0 C0.4846875 0.38671875 0.969375 0.7734375 1.46875 1.171875 C4.99580998 3.91212929 8.39797938 6.32154893 12.4375 8.25 C16 10 16 10 17 12 C18.64363134 12.72159424 20.31050386 13.39351421 22 14 C20 15 20 15 17.828125 14.36328125 C12.84723704 12.33319207 8.18826292 10.41674081 4 7 C4 6.01 4 5.02 4 4 C2.35 3.67 0.7 3.34 -1 3 C-0.67 2.01 -0.34 1.02 0 0 Z " fill="#8B7651" transform="translate(74,372)"/>
<path d="M0 0 C5.47932789 1.54545146 10.11429181 4.15543212 15 7 C10.98293463 8.05380414 7.1450825 8.66571915 3 9 C2.34 8.34 1.68 7.68 1 7 C1.99 6.34 2.98 5.68 4 5 C3.01 5 2.02 5 1 5 C0.67 3.35 0.34 1.7 0 0 Z " fill="#B79A5F" transform="translate(118,399)"/>
<path d="M0 0 C1.2065625 0.0309375 1.2065625 0.0309375 2.4375 0.0625 C3.4375 3.0625 3.4375 3.0625 3.4375 5.0625 C4.0975 5.0625 4.7575 5.0625 5.4375 5.0625 C5.4375 6.0525 5.4375 7.0425 5.4375 8.0625 C0.9825 8.5575 0.9825 8.5575 -3.5625 9.0625 C-3.8925 8.0725 -4.2225 7.0825 -4.5625 6.0625 C-3.9025 5.4025 -3.2425 4.7425 -2.5625 4.0625 C-2.8925 3.0725 -3.2225 2.0825 -3.5625 1.0625 C-2.5625 0.0625 -2.5625 0.0625 0 0 Z " fill="#ECBE6B" transform="translate(236.5625,394.9375)"/>
<path d="M0 0 C0.33 0 0.66 0 1 0 C0.20058185 9.91278511 -2.29633737 18.24145579 -7 27 C-7.33 27 -7.66 27 -8 27 C-7.35346673 20.04976736 -5.13972752 13.61822697 -3 7 C-2.34 7 -1.68 7 -1 7 C-0.67 4.69 -0.34 2.38 0 0 Z " fill="#98845B" transform="translate(290,341)"/>
<path d="M0 0 C2.29511763 0.78204008 3.90962123 1.78559766 5.859375 3.21875 C6.47296875 3.6621875 7.0865625 4.105625 7.71875 4.5625 C8.40710938 5.13484375 8.40710938 5.13484375 9.109375 5.71875 C9.109375 6.04875 9.109375 6.37875 9.109375 6.71875 C6.139375 6.71875 3.169375 6.71875 0.109375 6.71875 C0.439375 8.69875 0.769375 10.67875 1.109375 12.71875 C0.449375 12.71875 -0.210625 12.71875 -0.890625 12.71875 C-0.890625 9.08875 -0.890625 5.45875 -0.890625 1.71875 C-1.880625 1.38875 -2.870625 1.05875 -3.890625 0.71875 C-1.890625 -0.28125 -1.890625 -0.28125 0 0 Z " fill="#B18E53" transform="translate(192.890625,1.28125)"/>
<path d="M0 0 C1.65 0 3.3 0 5 0 C2.70842566 2.40104445 0.25822839 4.41988985 -2.375 6.4375 C-5.60913386 8.92773031 -8.82250322 11.43750259 -12 14 C-12.33 13.01 -12.66 12.02 -13 11 C-12.34 11 -11.68 11 -11 11 C-10.67 9.68 -10.34 8.36 -10 7 C-8.68 7 -7.36 7 -6 7 C-6 6.01 -6 5.02 -6 4 C-5.01 4 -4.02 4 -3 4 C-3 3.34 -3 2.68 -3 2 C-2.01 2 -1.02 2 0 2 C0 1.34 0 0.68 0 0 Z " fill="#AA926B" transform="translate(98,52)"/>
<path d="M0 0 C0.33 0 0.66 0 1 0 C1.05817206 4.22910869 1.09365463 8.45811409 1.125 12.6875 C1.14175781 13.88568359 1.15851563 15.08386719 1.17578125 16.31835938 C1.18222656 17.47529297 1.18867188 18.63222656 1.1953125 19.82421875 C1.20578613 20.88729248 1.21625977 21.95036621 1.22705078 23.0456543 C0.99375431 26.08126781 0.28205135 28.25623267 -1 31 C-1.33 31 -1.66 31 -2 31 C-2.1391722 23.88868736 -1.73492545 16.94617463 -1 9.875 C-0.85691406 8.44027344 -0.85691406 8.44027344 -0.7109375 6.9765625 C-0.4783375 4.65056246 -0.24130321 2.32511041 0 0 Z " fill="#7B6847" transform="translate(284,246)"/>
<path d="M0 0 C4.79821659 1.62114502 8.6672859 4.29276759 12.8125 7.125 C13.50537109 7.59292969 14.19824219 8.06085938 14.91210938 8.54296875 C16.61091105 9.69112437 18.30584864 10.84499367 20 12 C19.01 12.495 19.01 12.495 18 13 C15.96855359 12.06553465 13.96466413 11.06775224 12 10 C12 9.34 12 8.68 12 8 C11.13375 8.144375 10.2675 8.28875 9.375 8.4375 C4.91207916 7.85897323 3.79207906 6.04379265 1.1015625 2.62890625 C0 1 0 1 0 0 Z " fill="#958156" transform="translate(133,407)"/>
<path d="M0 0 C3.33333333 3.33333333 6.66666667 6.66666667 10 10 C9.67 10.99 9.34 11.98 9 13 C2.40909091 9.81818182 2.40909091 9.81818182 0.8125 6.625 C0 4 0 4 0 0 Z " fill="#BA9D67" transform="translate(64,362)"/>
<path d="M0 0 C0.66 0.33 1.32 0.66 2 1 C1.01 2.32 0.02 3.64 -1 5 C-0.67 5.66 -0.34 6.32 0 7 C-0.99 7.33 -1.98 7.66 -3 8 C-4.23277127 9.86022072 -4.23277127 9.86022072 -5.1875 12.0625 C-5.53167969 12.79597656 -5.87585938 13.52945313 -6.23046875 14.28515625 C-6.48441406 14.85105469 -6.73835938 15.41695312 -7 16 C-8.32 16 -9.64 16 -11 16 C-9.6020749 11.93064734 -7.66821145 9.06055399 -4.9375 5.75 C-4.22464844 4.87859375 -3.51179688 4.0071875 -2.77734375 3.109375 C-1.88187356 2.04661917 -0.98267919 0.98267919 0 0 Z " fill="#927F56" transform="translate(78,51)"/>
<path d="M0 0 C4.59306496 1.4859916 7.43569245 3.85014682 11 7 C9 8 9 8 7.1875 7.5 C4.51833411 6.88990494 2.63025054 7.34243737 0 8 C-0.98120464 4.94736336 -0.98120464 3.05263664 0 0 Z " fill="#B1945F" transform="translate(271,48)"/>
<path d="M0 0 C2.875 2.4375 2.875 2.4375 5 5 C5.66 5.33 6.32 5.66 7 6 C7 6.99 7 7.98 7 9 C2.90157595 7.59116673 -0.45591603 5.50961643 -4.03515625 3.12109375 C-6.02910935 1.98339089 -7.7583525 1.44433547 -10 1 C-6.78604986 -0.60697507 -3.47558877 -0.6204026 0 0 Z " fill="#846D4B" transform="translate(197,18)"/>
<path d="M0 0 C0.33 1.32 0.66 2.64 1 4 C0.05125 4.433125 -0.8975 4.86625 -1.875 5.3125 C-5.20041937 6.79302201 -5.20041937 6.79302201 -7 10 C-8.65 9.67 -10.3 9.34 -12 9 C-12.33 8.01 -12.66 7.02 -13 6 C-10.03 6.495 -10.03 6.495 -7 7 C-6.731875 6.21625 -6.46375 5.4325 -6.1875 4.625 C-4.80518115 1.56934781 -3.53283878 0 0 0 Z " fill="#E4C072" transform="translate(78,376)"/>
<path d="M0 0 C0.66 0.33 1.32 0.66 2 1 C1.67 1.61875 1.34 2.2375 1 2.875 C-0.14193235 4.91018344 -0.14193235 4.91018344 0 7 C-1.64453125 8.54296875 -1.64453125 8.54296875 -3.8125 10.1875 C-4.52019531 10.73792969 -5.22789063 11.28835937 -5.95703125 11.85546875 C-6.63121094 12.23316406 -7.30539063 12.61085938 -8 13 C-8.99 12.67 -9.98 12.34 -11 12 C-7.37 8.04 -3.74 4.08 0 0 Z " fill="#C8AB76" transform="translate(86,44)"/>
<path d="M0 0 C1.98 0.495 1.98 0.495 4 1 C4 1.66 4 2.32 4 3 C5.051875 3.0825 6.10375 3.165 7.1875 3.25 C11.28732127 4.05652222 13.07721678 5.07721678 16 8 C16 8.66 16 9.32 16 10 C9.83643195 8.3341708 4.51740344 5.12194714 -1 2 C-0.67 1.34 -0.34 0.68 0 0 Z " fill="#9B865A" transform="translate(234,43)"/>
<path d="M0 0 C0.66 0.33 1.32 0.66 2 1 C-0.125 3.5625 -0.125 3.5625 -3 6 C-6.3125 5.8125 -6.3125 5.8125 -9 5 C-9 5.66 -9 6.32 -9 7 C-13.02040985 7.69584017 -16.08263419 8.1700097 -20 7 C-19.2265625 6.74605469 -18.453125 6.49210937 -17.65625 6.23046875 C-12.85313036 4.64329926 -8.07513724 3.06061743 -3.375 1.1875 C-2.26125 0.795625 -1.1475 0.40375 0 0 Z " fill="#927C51" transform="translate(236,391)"/>
<path d="M0 0 C-1.53794135 3.17989806 -3.256479 6.21481974 -5.0625 9.25 C-5.58972656 10.14203125 -6.11695312 11.0340625 -6.66015625 11.953125 C-7.10230469 12.62859375 -7.54445313 13.3040625 -8 14 C-8.33 14 -8.66 14 -9 14 C-9 12.35 -9 10.7 -9 9 C-8.34 9 -7.68 9 -7 9 C-7 6.69 -7 4.38 -7 2 C-4.35261084 0.5393715 -3.10551666 0 0 0 Z " fill="#938054" transform="translate(86,66)"/>
<path d="M0 0 C0.33 0 0.66 0 1 0 C1.223293 2.06093408 1.42802887 4.1238839 1.625 6.1875 C1.74101562 7.33605469 1.85703125 8.48460937 1.9765625 9.66796875 C2.00023426 13.03330416 1.47419799 15.01221706 0 18 C-0.33 18 -0.66 18 -1 18 C-1.02690844 15.37493198 -1.04679404 12.75013827 -1.0625 10.125 C-1.07087891 9.37863281 -1.07925781 8.63226563 -1.08789062 7.86328125 C-1.11328125 2.2265625 -1.11328125 2.2265625 0 0 Z " fill="#C7A96E" transform="translate(290,327)"/>
<path d="M0 0 C0.33 0 0.66 0 1 0 C1.12330394 7.02832483 0.9622451 13.48306078 -2 20 C-2.33 20 -2.66 20 -3 20 C-3.40850553 12.91923749 -1.90420731 6.80074041 0 0 Z " fill="#8E7852" transform="translate(57,88)"/>
<path d="M0 0 C4.70940171 1.48717949 4.70940171 1.48717949 6.0625 3.875 C6.371875 4.57625 6.68125 5.2775 7 6 C7.70125 6.639375 8.4025 7.27875 9.125 7.9375 C11 10 11 10 11.25 12.75 C11.1675 13.4925 11.085 14.235 11 15 C8.39369226 11.7681784 5.81620539 8.51371354 3.25 5.25 C2.63640625 4.47140625 2.0228125 3.6928125 1.390625 2.890625 C0 1 0 1 0 0 Z " fill="#8D7A56" transform="translate(276,71)"/>
<path d="M0 0 C1.32 0 2.64 0 4 0 C4 0.66 4 1.32 4 2 C4.598125 2.0825 5.19625 2.165 5.8125 2.25 C8.62932273 3.21576779 9.47799132 4.48868567 11 7 C11 7.66 11 8.32 11 9 C7.03935893 7.25731793 3.25563451 4.85325271 0 2 C0 1.34 0 0.68 0 0 Z " fill="#9D895E" transform="translate(261,58)"/>
<path d="M0 0 C-0.66 1.65 -1.32 3.3 -2 5 C-2.7425 4.9175 -3.485 4.835 -4.25 4.75 C-7.78157027 5.07105184 -8.76630364 6.35265617 -11 9 C-11.66 8.34 -12.32 7.68 -13 7 C-11.59310148 5.82157218 -10.17406375 4.65762602 -8.75 3.5 C-7.96109375 2.8503125 -7.1721875 2.200625 -6.359375 1.53125 C-4 0 -4 0 0 0 Z " fill="#A38B5B" transform="translate(258,379)"/>
<path d="M0 0 C3.33855319 2.99318562 5.27398609 5.85756662 7 10 C7 11.32 7 12.64 7 14 C7.66 14.33 8.32 14.66 9 15 C8.01 15 7.02 15 6 15 C4.99267601 13.06629769 3.99436712 11.12789694 3 9.1875 C2.443125 8.10855469 1.88625 7.02960938 1.3125 5.91796875 C0 3 0 3 0 0 Z " fill="#8D7A54" transform="translate(41,350)"/>
<path d="M0 0 C4.44280672 -0.21156222 7.9083139 0.19204568 12 2 C12.33 2.99 12.66 3.98 13 5 C10.34501768 6.0169313 9.30844625 6.13022151 6.640625 5.00390625 C5.85171875 4.52824219 5.0628125 4.05257813 4.25 3.5625 C3.45078125 3.08941406 2.6515625 2.61632812 1.828125 2.12890625 C1.22484375 1.75636719 0.6215625 1.38382812 0 1 C0 0.67 0 0.34 0 0 Z " fill="#A68F5D" transform="translate(80,395)"/>
<path d="M0 0 C0.66 0 1.32 0 2 0 C1.22602467 6.70778622 0.14231412 13.34574301 -1 20 C-1.33 20 -1.66 20 -2 20 C-2.33 16.37 -2.66 12.74 -3 9 C-2.67 9 -2.34 9 -2 9 C-1.34 6.03 -0.68 3.06 0 0 Z " fill="#85704C" transform="translate(71,89)"/>
<path d="M0 0 C2.97 0 5.94 0 9 0 C6.51737568 2.48262432 4.38224713 3.07286975 1.0625 4.1875 C0.00160156 4.55230469 -1.05929688 4.91710938 -2.15234375 5.29296875 C-5 6 -5 6 -8 5 C-6.68 4.67 -5.36 4.34 -4 4 C-4 3.34 -4 2.68 -4 2 C-2.68 2 -1.36 2 0 2 C0 1.34 0 0.68 0 0 Z " fill="#837356" transform="translate(136,36)"/>
<path d="M0 0 C3.19624262 1.53837846 6.21605574 3.28866532 9.25 5.125 C10.14203125 5.66382813 11.0340625 6.20265625 11.953125 6.7578125 C12.96632812 7.37269531 12.96632812 7.37269531 14 8 C13.01 8.66 12.02 9.32 11 10 C10.34 9.01 9.68 8.02 9 7 C7.67851173 6.62243192 6.34164079 6.2981424 5 6 C2.98473831 5.03112419 0.98166034 4.0358679 -1 3 C-0.67 2.01 -0.34 1.02 0 0 Z " fill="#866D47" transform="translate(202,8)"/>
<path d="M0 0 C0.4125 0.474375 0.825 0.94875 1.25 1.4375 C3.182185 3.16266518 4.48192275 3.56584875 7 4 C7 4.99 7 5.98 7 7 C7.99 7 8.98 7 10 7 C10 7.66 10 8.32 10 9 C5.1725201 7.58707905 1.2837641 5.57025846 -3 3 C-2.01 2.01 -1.02 1.02 0 0 Z " fill="#9F885C" transform="translate(105,405)"/>
<path d="M0 0 C1.22589844 0.01353516 1.22589844 0.01353516 2.4765625 0.02734375 C3.41628906 0.04474609 3.41628906 0.04474609 4.375 0.0625 C4.375 1.3825 4.375 2.7025 4.375 4.0625 C0.745 3.7325 -2.885 3.4025 -6.625 3.0625 C-6.625 2.4025 -6.625 1.7425 -6.625 1.0625 C-4.21954362 -0.14022819 -2.67503047 -0.03821472 0 0 Z " fill="#EABD74" transform="translate(208.625,402.9375)"/>
<path d="M0 0 C1.98 0 3.96 0 6 0 C3.1237651 2.3223428 0.36219578 3.86565842 -3.0625 5.25 C-3.91972656 5.60578125 -4.77695313 5.9615625 -5.66015625 6.328125 C-8 7 -8 7 -11 6 C-10.67 5.34 -10.34 4.68 -10 4 C-7.93359375 3.5859375 -7.93359375 3.5859375 -5.4375 3.375 C-4.61121094 3.30023438 -3.78492188 3.22546875 -2.93359375 3.1484375 C-1.97646484 3.07496094 -1.97646484 3.07496094 -1 3 C-0.67 2.01 -0.34 1.02 0 0 Z " fill="#897A52" transform="translate(241,403)"/>
<path d="M0 0 C2.31 0.66 4.62 1.32 7 2 C7 4.64 7 7.28 7 10 C3.60582235 6.87378374 1.3937282 4.43458973 0 0 Z " fill="#AD8E61" transform="translate(49,366)"/>
<path d="M0 0 C3.32875935 3.64578405 5.0219329 8.21084385 6 13 C5.578125 15.28125 5.578125 15.28125 5 17 C4.71125 16.236875 4.4225 15.47375 4.125 14.6875 C3.03730987 11.84970692 3.03730987 11.84970692 1 9 C0.5859375 6.73828125 0.5859375 6.73828125 0.375 4.3125 C0.30023438 3.50425781 0.22546875 2.69601563 0.1484375 1.86328125 C0.09945313 1.24839844 0.05046875 0.63351563 0 0 Z " fill="#907C52" transform="translate(302,83)"/>
<path d="M0 0 C0.99 0.33 1.98 0.66 3 1 C1.12855305 1.82065069 -0.74734336 2.6311584 -2.625 3.4375 C-3.66914063 3.88996094 -4.71328125 4.34242187 -5.7890625 4.80859375 C-8.88685251 5.95801705 -11.73210054 6.57311223 -15 7 C-15.33 6.01 -15.66 5.02 -16 4 C-13.525 4.495 -13.525 4.495 -11 5 C-11 4.34 -11 3.68 -11 3 C-10.06027344 2.80083984 -10.06027344 2.80083984 -9.1015625 2.59765625 C-8.28429687 2.42105469 -7.46703125 2.24445312 -6.625 2.0625 C-5.40683594 1.80146484 -5.40683594 1.80146484 -4.1640625 1.53515625 C-1.970537 1.07669307 -1.970537 1.07669307 0 0 Z " fill="#857559" transform="translate(172,25)"/>
<path d="M0 0 C-2.28779038 1.03040167 -4.57951136 2.04952018 -6.875 3.0625 C-7.85146484 3.50432617 -7.85146484 3.50432617 -8.84765625 3.95507812 C-10.54010541 4.69661513 -12.26868575 5.35439001 -14 6 C-14.66 5.67 -15.32 5.34 -16 5 C-16 4.34 -16 3.68 -16 3 C-14.35 3 -12.7 3 -11 3 C-11 2.01 -11 1.02 -11 0 C-3.375 -1.125 -3.375 -1.125 0 0 Z " fill="#8A7651" transform="translate(181,428)"/>
<path d="M0 0 C0.66 0.33 1.32 0.66 2 1 C-0.22595567 3.55984902 -1.71295637 4.32325572 -5 5 C-5.825 5.37125 -6.65 5.7425 -7.5 6.125 C-10.2878429 7.10074502 -11.258015 6.82491922 -14 6 C-11.71220962 4.96959833 -9.42048864 3.95047982 -7.125 2.9375 C-6.47402344 2.64294922 -5.82304687 2.34839844 -5.15234375 2.04492188 C-3.45989459 1.30338487 -1.73131425 0.64560999 0 0 Z " fill="#85724C" transform="translate(171,414)"/>
<path d="M0 0 C5.73232596 4.14678899 5.73232596 4.14678899 7 8.1875 C7 9.115625 7 10.04375 7 11 C6.34 11.66 5.68 12.32 5 13 C4.16209211 11.21046815 3.32980604 9.41830305 2.5 7.625 C1.80390625 6.12839844 1.80390625 6.12839844 1.09375 4.6015625 C0 2 0 2 0 0 Z " fill="#9B8659" transform="translate(287,86)"/>
<path d="M0 0 C0 0.66 0 1.32 0 2 C0.66 2.33 1.32 2.66 2 3 C-3.28 3.66 -8.56 4.32 -14 5 C-11.56585763 3.37723842 -9.68680554 2.38255208 -7 1.375 C-6.319375 1.11460937 -5.63875 0.85421875 -4.9375 0.5859375 C-3 0 -3 0 0 0 Z " fill="#90784F" transform="translate(192,407)"/>
<path d="M0 0 C1.258125 0.12375 2.51625 0.2475 3.8125 0.375 C4.87404297 0.47941406 4.87404297 0.47941406 5.95703125 0.5859375 C8 1 8 1 11 3 C11 3.66 11 4.32 11 5 C11.66 5 12.32 5 13 5 C13 5.66 13 6.32 13 7 C8.1725201 5.58707905 4.2837641 3.57025846 0 1 C0 0.67 0 0.34 0 0 Z " fill="#897851" transform="translate(220,37)"/>
<path d="M0 0 C-0.639375 0.103125 -1.27875 0.20625 -1.9375 0.3125 C-2.618125 0.539375 -3.29875 0.76625 -4 1 C-4.33 1.99 -4.66 2.98 -5 4 C-8.3 4.33 -11.6 4.66 -15 5 C-12.01668605 2.76251454 -10.24674484 1.49973408 -6.9375 0.25 C-6.26589844 -0.01296875 -5.59429687 -0.2759375 -4.90234375 -0.546875 C-3 -1 -3 -1 0 0 Z " fill="#827052" transform="translate(118,30)"/>
<path d="M0 0 C1.65 0 3.3 0 5 0 C2.25604436 2.94721162 -0.38337216 5.19168608 -4 7 C-6 6 -6 6 -7 4 C-4.69 3.01 -2.38 2.02 0 1 C0 0.67 0 0.34 0 0 Z " fill="#968255" transform="translate(253,396)"/>
<path d="M0 0 C2.31 0 4.62 0 7 0 C3.59780735 2.74792483 -0.48464588 6 -5 6 C-5 5.01 -5 4.02 -5 3 C-3.35 2.34 -1.7 1.68 0 1 C0 0.67 0 0.34 0 0 Z " fill="#8D7C59" transform="translate(108,46)"/>
<path d="M0 0 C6.87794433 -0.31263383 6.87794433 -0.31263383 10 2 C10.75 4.125 10.75 4.125 11 6 C6.95743617 4.77782954 3.50711041 3.37245704 0 1 C0 0.67 0 0.34 0 0 Z " fill="#917C50" transform="translate(91,401)"/>
<path d="M0 0 C5.75 0.875 5.75 0.875 8 2 C8 2.99 8 3.98 8 5 C5.36 4.34 2.72 3.68 0 3 C0 2.01 0 1.02 0 0 Z " fill="#BEA06A" transform="translate(242,33)"/>
<path d="M0 0 C0.94875 0.04125 1.8975 0.0825 2.875 0.125 C3.205 0.785 3.535 1.445 3.875 2.125 C2.60892393 2.65729326 1.33689588 3.17544544 0.0625 3.6875 C-0.64519531 3.97753906 -1.35289062 4.26757812 -2.08203125 4.56640625 C-4.125 5.125 -4.125 5.125 -7.125 4.125 C-3.125 0.125 -3.125 0.125 0 0 Z " fill="#937E5E" transform="translate(153.125,30.875)"/>
<path d="M0 0 C3.12308506 0.60803426 5.19251662 1.62014042 7.75 3.5 C8.36359375 3.9434375 8.9771875 4.386875 9.609375 4.84375 C10.29773438 5.41609375 10.29773438 5.41609375 11 6 C11 6.33 11 6.66 11 7 C8.1875 7.3125 8.1875 7.3125 5 7 C3.25 4.625 3.25 4.625 2 2 C1.34 1.34 0.68 0.68 0 0 Z " fill="#766041" transform="translate(191,1)"/>
<path d="M0 0 C3.80666984 1.44390925 5.26602582 3.34952803 7 7 C6.67 7.66 6.34 8.32 6 9 C3 8 3 8 1.3125 5.0625 C0 2 0 2 0 0 Z " fill="#A79063" transform="translate(292,68)"/>
<path d="M0 0 C0 0.66 0 1.32 0 2 C-0.99 2 -1.98 2 -3 2 C-3.20625 2.639375 -3.4125 3.27875 -3.625 3.9375 C-5 6 -5 6 -8.125 6.75 C-9.548125 6.87375 -9.548125 6.87375 -11 7 C-4.48275862 0 -4.48275862 0 0 0 Z " fill="#907D5C" transform="translate(99,37)"/>
<path d="M0 0 C0.66 0 1.32 0 2 0 C3.61949011 2.57213134 4.04408751 3.67669159 3.625 6.75 C3.41875 7.4925 3.2125 8.235 3 9 C2.01 8.67 1.02 8.34 0 8 C0 5.36 0 2.72 0 0 Z " fill="#E2C273" transform="translate(58,88)"/>
<path d="M0 0 C1.65 0 3.3 0 5 0 C5 0.66 5 1.32 5 2 C6.65 2.33 8.3 2.66 10 3 C10 3.99 10 4.98 10 6 C5.56909529 4.79157144 3.01887244 3.48331435 0 0 Z " fill="#8B7751" transform="translate(119,416)"/>
<path d="M0 0 C0.33 0 0.66 0 1 0 C0.5547115 5.27315333 -0.08373163 10.01770224 -2 15 C-2.33 15 -2.66 15 -3 15 C-3 12.36 -3 9.72 -3 7 C-2.34 7 -1.68 7 -1 7 C-0.67 4.69 -0.34 2.38 0 0 Z " fill="#776546" transform="translate(290,341)"/>
<path d="M0 0 C0.66 0 1.32 0 2 0 C1.49287967 3.71888239 0.88391785 6.73454239 -1 10 C-1.66 10 -2.32 10 -3 10 C-2.67 8.02 -2.34 6.04 -2 4 C-1.34 4 -0.68 4 0 4 C0 2.68 0 1.36 0 0 Z " fill="#E3C17D" transform="translate(63,76)"/>
<path d="M0 0 C2 0 4 0 6 0 C5.814375 0.78375 5.62875 1.5675 5.4375 2.375 C4.74037734 4.97089775 4.74037734 4.97089775 6 7 C3.5625 6.3125 3.5625 6.3125 1 5 C0.1875 2.375 0.1875 2.375 0 0 Z " fill="#E9BF75" transform="translate(48,361)"/>
<path d="M0 0 C1.33332095 2.6666419 0.67102033 4.16680303 0 7 C-0.66 7 -1.32 7 -2 7 C-2 8.32 -2 9.64 -2 11 C-2.66 11 -3.32 11 -4 11 C-3.48964169 6.6109185 -2.47785723 3.66291938 0 0 Z " fill="#8E7751" transform="translate(65,69)"/>
<path d="M0 0 C2.9375 0.75 2.9375 0.75 6 2 C6.875 4.125 6.875 4.125 7 6 C5.1875 5.8125 5.1875 5.8125 3 5 C1.25 2.4375 1.25 2.4375 0 0 Z " fill="#C2A46F" transform="translate(271,65)"/>
<path d="M0 0 C0 0.66 0 1.32 0 2 C-6.625 5 -6.625 5 -10 5 C-10 4.34 -10 3.68 -10 3 C-6.27034861 0.96564469 -4.33094958 0 0 0 Z " fill="#EBD3A2" transform="translate(175,23)"/>
<path d="M0 0 C-1.24663331 0.50833591 -2.49749387 1.00631145 -3.75 1.5 C-4.44609375 1.7784375 -5.1421875 2.056875 -5.859375 2.34375 C-8 3 -8 3 -12 3 C-12 2.01 -12 1.02 -12 0 C-11.05125 0.020625 -10.1025 0.04125 -9.125 0.0625 C-0.375 -0.1125 -0.375 -0.1125 0 0 Z " fill="#78674B" transform="translate(127,43)"/>
<path d="M0 0 C-2.90092502 1.93395001 -3.89674737 2.30131941 -7.1875 2.625 C-8.445625 2.74875 -9.70375 2.8725 -11 3 C-7.6562111 -0.84535724 -4.83651161 -1.55459302 0 0 Z " fill="#E0BF7B" transform="translate(212,415)"/>
<path d="M0 0 C0.99 0.33 1.98 0.66 3 1 C2.01 1.495 2.01 1.495 1 2 C1 2.66 1 3.32 1 4 C1.99 4 2.98 4 4 4 C4.33 5.32 4.66 6.64 5 8 C1.66462511 6.88820837 0.36292656 5.52588702 -2 3 C-1.34 2.01 -0.68 1.02 0 0 Z " fill="#EBC079" transform="translate(126,414)"/>
<path d="M0 0 C2.97 0.495 2.97 0.495 6 1 C4.8125 2.5625 4.8125 2.5625 3 4 C0.3125 3.6875 0.3125 3.6875 -2 3 C-1.34 2.67 -0.68 2.34 0 2 C0 1.34 0 0.68 0 0 Z " fill="#E6BD74" transform="translate(107,395)"/>
<path d="M0 0 C1.65 0 3.3 0 5 0 C2.83312509 2.27521866 0.54379491 4.15794162 -2 6 C-2.66 5.67 -3.32 5.34 -4 5 C-3.67 4.01 -3.34 3.02 -3 2 C-2.01 2 -1.02 2 0 2 C0 1.34 0 0.68 0 0 Z " fill="#867554" transform="translate(98,52)"/>
<path d="M0 0 C0.185625 0.9590625 0.185625 0.9590625 0.375 1.9375 C0.684375 2.9584375 0.684375 2.9584375 1 4 C1.66 4.33 2.32 4.66 3 5 C1.35 5.66 -0.3 6.32 -2 7 C-2.33 6.01 -2.66 5.02 -3 4 C-2.34 4 -1.68 4 -1 4 C-0.67 2.68 -0.34 1.36 0 0 Z " fill="#B2995E" transform="translate(260,389)"/>
<path d="M0 0 C0.75 1.75 0.75 1.75 1 4 C-0.8125 6.25 -0.8125 6.25 -3 8 C-3.66 8 -4.32 8 -5 8 C-4.1875 5.5625 -4.1875 5.5625 -3 3 C-2.01 2.67 -1.02 2.34 0 2 C0 1.34 0 0.68 0 0 Z " fill="#E5BF79" transform="translate(266,368)"/>
<path d="M0 0 C0.66 0.33 1.32 0.66 2 1 C0.7874262 4.72433382 -0.50859979 8.37802806 -2 12 C-3.12377697 8.69564916 -2.89554742 6.9493138 -1.5625 3.75 C-1.27503906 3.04359375 -0.98757813 2.3371875 -0.69140625 1.609375 C-0.46324219 1.07828125 -0.23507812 0.5471875 0 0 Z " fill="#DEBF7B" transform="translate(277,340)"/>
<path d="M0 0 C-0.33 1.32 -0.66 2.64 -1 4 C-1.66 4 -2.32 4 -3 4 C-3.33 5.32 -3.66 6.64 -4 8 C-5.03864166 4.88407501 -5.09036928 3.9737344 -4 1 C-2 0 -2 0 0 0 Z " fill="#D2B77F" transform="translate(70,66)"/>
<path d="M0 0 C0 0.99 0 1.98 0 3 C-3.3 3.33 -6.6 3.66 -10 4 C-7.25346796 1.25346796 -3.91404908 0 0 0 Z " fill="#8F8063" transform="translate(180,7)"/>
<path d="M0 0 C1.5 1.375 1.5 1.375 3 3 C3 3.66 3 4.32 3 5 C0.69 4.34 -1.62 3.68 -4 3 C-2.68 2.01 -1.36 1.02 0 0 Z " fill="#E7BF77" transform="translate(165,418)"/>
<path d="M0 0 C2.475 0.99 2.475 0.99 5 2 C5 2.99 5 3.98 5 5 C5.99 5.33 6.98 5.66 8 6 C6.68 6 5.36 6 4 6 C4 5.01 4 4.02 4 3 C2.68 2.67 1.36 2.34 0 2 C0 1.34 0 0.68 0 0 Z " fill="#E6BE77" transform="translate(97,400)"/>
<path d="M0 0 C0 0.66 0 1.32 0 2 C-7.42857143 3.28571429 -7.42857143 3.28571429 -11 2 C-7.17679443 0.57741188 -4.08718695 -0.24042276 0 0 Z " fill="#87734D" transform="translate(227,396)"/>
<path d="M0 0 C3.3 1.65 6.6 3.3 10 5 C6.83170302 6.05609899 6.01480825 6.13055309 3 5 C1.25 3.5625 1.25 3.5625 0 2 C0 1.34 0 0.68 0 0 Z " fill="#766445" transform="translate(103,390)"/>
<path d="M0 0 C2.31 0.33 4.62 0.66 7 1 C7.33 2.32 7.66 3.64 8 5 C4.62496331 3.8141763 2.35277269 2.72426311 0 0 Z " fill="#89734E" transform="translate(72,390)"/>
<path d="M0 0 C1.32 0.66 2.64 1.32 4 2 C3.67 2.66 3.34 3.32 3 4 C1.02 4 -0.96 4 -3 4 C-2.01 2.68 -1.02 1.36 0 0 Z " fill="#ECC78B" transform="translate(88,44)"/>
<path d="M0 0 C-0.33 0.99 -0.66 1.98 -1 3 C-2.32 3 -3.64 3 -5 3 C-5 2.34 -5 1.68 -5 1 C-5.66 0.67 -6.32 0.34 -7 0 C-4.3333581 -1.33332095 -2.83319697 -0.67102033 0 0 Z " fill="#BFA372" transform="translate(106,36)"/>
<path d="M0 0 C0.66 0.33 1.32 0.66 2 1 C1.01 2.485 1.01 2.485 0 4 C-1.9453125 4.29296875 -1.9453125 4.29296875 -4.125 4.1875 C-5.40375 4.125625 -6.6825 4.06375 -8 4 C-5.31143836 2.20762558 -3.0466145 1.01553817 0 0 Z " fill="#8A765C" transform="translate(168,11)"/>
<path d="M0 0 C3.4375 0.8125 3.4375 0.8125 7 2 C7.33 2.99 7.66 3.98 8 5 C2.25 3.375 2.25 3.375 0 0 Z " fill="#88714F" transform="translate(129,422)"/>
<path d="M0 0 C3.93673644 1.31224548 6.22719294 2.91910327 9 6 C2.35384615 4.52307692 2.35384615 4.52307692 0.5625 1.875 C0.376875 1.25625 0.19125 0.6375 0 0 Z " fill="#6F6141" transform="translate(144,414)"/>
<path d="M0 0 C0.66 0.33 1.32 0.66 2 1 C0.8125 2.5 0.8125 2.5 -1 4 C-3.6875 4.1875 -3.6875 4.1875 -6 4 C-3.94766315 1.7522025 -2.99332739 0.9977758 0 0 Z " fill="#E0C279" transform="translate(239,403)"/>
<path d="M0 0 C0.99 0.33 1.98 0.66 3 1 C1.84826645 3.46800047 0.95216435 5.04783565 -1 7 C-1.33 5.68 -1.66 4.36 -2 3 C-1.34 3 -0.68 3 0 3 C0 2.01 0 1.02 0 0 Z " fill="#A28D5E" transform="translate(275,374)"/>
<path d="M0 0 C-0.33 0.66 -0.66 1.32 -1 2 C-3.97 2 -6.94 2 -10 2 C-6.19832777 -0.53444815 -4.31588991 -1.33941411 0 0 Z " fill="#8B7E5D" transform="translate(150,20)"/>
<path d="M0 0 C-3.51187196 2.40814077 -5.72656908 3.36629408 -10 3 C-3.94594595 -1.97297297 -3.94594595 -1.97297297 0 0 Z " fill="#EBD0A2" transform="translate(166,15)"/>
<path d="" fill="#000000" transform="translate(0,0)"/>
<path d="" fill="#000000" transform="translate(0,0)"/>
<path d="" fill="#000000" transform="translate(0,0)"/>
<path d="" fill="#000000" transform="translate(0,0)"/>
<path d="" fill="#000000" transform="translate(0,0)"/>
<path d="" fill="#000000" transform="translate(0,0)"/>
<path d="" fill="#000000" transform="translate(0,0)"/>
<path d="" fill="#000000" transform="translate(0,0)"/>
<path d="" fill="#000000" transform="translate(0,0)"/>
<path d="" fill="#000000" transform="translate(0,0)"/>
<path d="" fill="#000000" transform="translate(0,0)"/>
<path d="" fill="#000000" transform="translate(0,0)"/>
<path d="" fill="#000000" transform="translate(0,0)"/>
<path d="" fill="#000000" transform="translate(0,0)"/>
<path d="" fill="#000000" transform="translate(0,0)"/>
<path d="" fill="#000000" transform="translate(0,0)"/>
<path d="" fill="#000000" transform="translate(0,0)"/>
<path d="" fill="#000000" transform="translate(0,0)"/>
<path d="" fill="#000000" transform="translate(0,0)"/>
<path d="" fill="#000000" transform="translate(0,0)"/>
<path d="" fill="#000000" transform="translate(0,0)"/>
<path d="" fill="#000000" transform="translate(0,0)"/>
<path d="" fill="#000000" transform="translate(0,0)"/>
<path d="" fill="#000000" transform="translate(0,0)"/>
<path d="" fill="#000000" transform="translate(0,0)"/>
<path d="" fill="#000000" transform="translate(0,0)"/>
<path d="" fill="#000000" transform="translate(0,0)"/>
<path d="" fill="#000000" transform="translate(0,0)"/>
<path d="" fill="#000000" transform="translate(0,0)"/>
<path d="" fill="#000000" transform="translate(0,0)"/>
<path d="" fill="#000000" transform="translate(0,0)"/>
<path d="" fill="#000000" transform="translate(0,0)"/>
<path d="" fill="#000000" transform="translate(0,0)"/>
<path d="" fill="#000000" transform="translate(0,0)"/>
<path d="" fill="#000000" transform="translate(0,0)"/>
<path d="" fill="#000000" transform="translate(0,0)"/>
<path d="" fill="#000000" transform="translate(0,0)"/>
<path d="" fill="#000000" transform="translate(0,0)"/>
<path d="" fill="#000000" transform="translate(0,0)"/>
<path d="" fill="#000000" transform="translate(0,0)"/>
<path d="" fill="#000000" transform="translate(0,0)"/>
<path d="" fill="#000000" transform="translate(0,0)"/>
<path d="" fill="#000000" transform="translate(0,0)"/>
<path d="" fill="#000000" transform="translate(0,0)"/>
<path d="" fill="#000000" transform="translate(0,0)"/>
<path d="" fill="#000000" transform="translate(0,0)"/>
<path d="" fill="#000000" transform="translate(0,0)"/>
<path d="" fill="#000000" transform="translate(0,0)"/>
<path d="" fill="#000000" transform="translate(0,0)"/>
<path d="" fill="#000000" transform="translate(0,0)"/>
<path d="" fill="#000000" transform="translate(0,0)"/>
<path d="" fill="#000000" transform="translate(0,0)"/>
<path d="" fill="#000000" transform="translate(0,0)"/>
<path d="" fill="#000000" transform="translate(0,0)"/>
<path d="" fill="#000000" transform="translate(0,0)"/>
<path d="" fill="#000000" transform="translate(0,0)"/>
<path d="" fill="#000000" transform="translate(0,0)"/>
<path d="" fill="#000000" transform="translate(0,0)"/>
<path d="" fill="#000000" transform="translate(0,0)"/>
<path d="" fill="#000000" transform="translate(0,0)"/>
<path d="" fill="#000000" transform="translate(0,0)"/>
<path d="" fill="#000000" transform="translate(0,0)"/>
<path d="" fill="#000000" transform="translate(0,0)"/>
<path d="" fill="#000000" transform="translate(0,0)"/>
<path d="" fill="#000000" transform="translate(0,0)"/>
<path d="" fill="#000000" transform="translate(0,0)"/>
<path d="" fill="#000000" transform="translate(0,0)"/>
<path d="" fill="#000000" transform="translate(0,0)"/>
<path d="" fill="#000000" transform="translate(0,0)"/>
<path d="" fill="#000000" transform="translate(0,0)"/>
<path d="" fill="#000000" transform="translate(0,0)"/>
</svg>
