<?xml version="1.0" encoding="UTF-8"?>
<svg version="1.1" xmlns="http://www.w3.org/2000/svg" width="1170" height="1170">
<path d="M0 0 C386.1 0 772.2 0 1170 0 C1170 18.81 1170 37.62 1170 57 C783.9 57 397.8 57 0 57 C0 38.19 0 19.38 0 0 Z " fill="#FCFCFC" transform="translate(0,738)"/>
<path d="M0 0 C386.1 0 772.2 0 1170 0 C1170 6.27 1170 12.54 1170 19 C783.9 19 397.8 19 0 19 C0 12.73 0 6.46 0 0 Z " fill="#016733" transform="translate(0,776)"/>
<path d="M0 0 C386.1 0 772.2 0 1170 0 C1170 6.27 1170 12.54 1170 19 C783.9 19 397.8 19 0 19 C0 12.73 0 6.46 0 0 Z " fill="#EC5925" transform="translate(0,738)"/>
<path d="M0 0 C40.01359571 0 40.01359571 0 49.421875 8.58447266 C51.03732572 10.03347997 52.71021387 11.30389229 54.46875 12.57421875 C60.55424876 16.98803833 66.22186359 21.83955779 71.75 26.93359375 C73.7344682 28.75613486 75.75785892 30.50783558 77.8125 32.25 C86.47760624 39.80554995 94.66941642 48.14713798 102 57 C102.474375 57.56058105 102.94875 58.12116211 103.4375 58.69873047 C105.13539349 60.70732622 106.8187234 62.72748125 108.5 64.75 C109.03431641 65.38139893 109.56863281 66.01279785 110.11914062 66.66333008 C114.95459822 72.54602734 118.01835574 78.17432412 122 85 C122.33 56.95 122.66 28.9 123 0 C135.54 0 148.08 0 161 0 C161 48.18 161 96.36 161 146 C147.14 146 133.28 146 119 146 C117.4325 142.90625 115.865 139.8125 114.25 136.625 C108.87075521 126.22984109 102.7671866 116.53919993 96 107 C95.24074219 105.92492187 94.48148438 104.84984375 93.69921875 103.7421875 C78.34427915 82.68879683 59.76940176 62.01108672 37 49 C37 81.01 37 113.02 37 146 C24.79 146 12.58 146 0 146 C0 97.82 0 49.64 0 0 Z " fill="#D80B2A" transform="translate(848,386)"/>
<path d="M0 0 C40.02868852 0 40.02868852 0 49.37890625 8.54150391 C51.06979933 10.06279837 52.8267069 11.41122707 54.65625 12.76171875 C61.30290228 17.70111959 67.48422511 23.10177689 73.55078125 28.734375 C75.68387867 30.70757517 77.85358987 32.61294703 80.0625 34.5 C87.62771724 41.08856009 94.53958652 48.33510265 101 56 C101.7940625 56.928125 102.588125 57.85625 103.40625 58.8125 C110.4558621 67.10482361 116.59029444 75.53301527 122 85 C122.33 56.95 122.66 28.9 123 0 C135.21 0 147.42 0 160 0 C161 1 161 1 161.12304783 3.38756657 C161.12212604 4.45592463 161.12120424 5.5242827 161.12025452 6.62501526 C161.12231651 8.45715576 161.12231651 8.45715576 161.12442017 10.3263092 C161.12088056 11.69223047 161.11724574 13.05815148 161.11352539 14.42407227 C161.11324352 15.85277301 161.11340124 17.2814739 161.1139679 18.71017456 C161.11425589 22.60049972 161.10835887 26.49079431 161.10139394 30.38111234 C161.0951607 34.44238205 161.09455663 38.50365239 161.09336853 42.56492615 C161.09025512 50.26078933 161.08204161 57.95663838 161.07201904 65.65249532 C161.06085819 74.41172114 161.05534753 83.17094761 161.05032361 91.93017876 C161.039859 109.95346216 161.02151341 127.97672617 161 146 C147.14 146 133.28 146 119 146 C117.55625 143.195 116.1125 140.39 114.625 137.5 C96.89548393 103.6577648 70.67827606 68.24472918 37 49 C37 81.01 37 113.02 37 146 C24.79 146 12.58 146 0 146 C0 97.82 0 49.64 0 0 Z " fill="#D70B2A" transform="translate(233,386)"/>
<path d="M0 0 C20.66625 -0.12375 20.66625 -0.12375 41.75 -0.25 C46.05772461 -0.28641602 50.36544922 -0.32283203 54.80371094 -0.36035156 C60.17236328 -0.37841797 60.17236328 -0.37841797 62.706604 -0.3817749 C64.43076745 -0.38781145 66.15491694 -0.40165136 67.87896729 -0.42230225 C93.13395597 -0.70898268 115.26669864 3.8047834 134.46484375 21.23828125 C148.7496792 35.76730192 153.28850844 55.66395433 153.24438477 75.45629883 C152.95476471 95.30000467 146.9731621 112.94007585 132.84375 127.171875 C123.57847852 135.84991097 113.22636547 140.84055674 101 144 C99.97666061 144.26528 99.97666061 144.26528 98.93264771 144.53591919 C89.13512984 146.66875739 79.20766706 146.25078973 69.23828125 146.1953125 C67.46236293 146.19236627 65.68644287 146.19032941 63.91052246 146.18920898 C57.37782156 146.17878888 50.84515801 146.15086647 44.3125 146.125 C29.689375 146.08375 15.06625 146.0425 0 146 C0 97.82 0 49.64 0 0 Z M38 34 C38 60.07 38 86.14 38 113 C45.1775 113.0825 52.355 113.165 59.75 113.25 C61.99006836 113.28641602 64.23013672 113.32283203 66.53808594 113.36035156 C81.13168445 113.49988226 92.99746012 112.69691377 104 102 C112.00492332 93.39821837 114.35936768 82.93710632 114.14453125 71.375 C113.50994412 60.94718985 110.06956664 50.3895034 102.3125 43.0625 C95.54171579 37.72675676 87.10540667 33.86206346 78.41503906 33.88647461 C77.04532959 33.88665588 77.04532959 33.88665588 75.64794922 33.88684082 C74.22119873 33.89451477 74.22119873 33.89451477 72.765625 33.90234375 C71.88503418 33.90335083 71.00444336 33.90435791 70.09716797 33.90539551 C66.81476536 33.91061867 63.53238134 33.92457994 60.25 33.9375 C52.9075 33.958125 45.565 33.97875 38 34 Z " fill="#D80B2A" transform="translate(425,386)"/>
<path d="M0 0 C1.75503846 -0.04291994 3.50966264 -0.110852 5.26269531 -0.20507812 C20.52157457 -1.01707416 20.52157457 -1.01707416 25.68334961 3.2578125 C28.6064035 6.17180031 30.90281226 9.40087841 33.21801758 12.81005859 C34.32105009 14.23021106 35.42503306 15.64962651 36.53051758 17.06787109 C37.43730713 18.34925012 38.33321939 19.63839686 39.21801758 20.93505859 C39.71309814 21.65258301 40.20817871 22.37010742 40.71826172 23.109375 C42.23589157 25.33162733 43.73115592 27.56712357 45.21801758 29.81005859 C45.90613525 30.84163086 45.90613525 30.84163086 46.6081543 31.89404297 C69.27235778 66.26985322 83.16315099 106.09029999 88.21801758 146.81005859 C75.01801758 146.81005859 61.81801758 146.81005859 48.21801758 146.81005859 C46.56801758 137.90005859 44.91801758 128.99005859 43.21801758 119.81005859 C2.13301758 119.31505859 2.13301758 119.31505859 -39.78198242 118.81005859 C-41.02806461 126.90959279 -42.23521826 134.98805976 -43.31713867 143.10693359 C-43.78198242 145.81005859 -43.78198242 145.81005859 -44.78198242 146.81005859 C-47.66632062 146.89871067 -50.526604 146.92527155 -53.41088867 146.90771484 C-54.70723488 146.90559242 -54.70723488 146.90559242 -56.0297699 146.90342712 C-58.80137534 146.89781098 -61.57290122 146.88525578 -64.34448242 146.87255859 C-66.21883022 146.86754567 -68.09317927 146.86298241 -69.9675293 146.85888672 C-74.57237786 146.84783631 -79.17716663 146.83056089 -83.78198242 146.81005859 C-82.69039369 136.7974993 -81.21371285 127.08866447 -78.71948242 117.31005859 C-78.41421631 116.11082764 -78.1089502 114.91159668 -77.79443359 113.67602539 C-68.82621809 79.6049042 -41.72540881 0.76532014 0 0 Z M-0.35229492 33.99755859 C-10.71065573 46.07363753 -30.78198242 73.12102718 -30.78198242 89.81005859 C-9.00198242 89.81005859 12.77801758 89.81005859 35.21801758 89.81005859 C30.48008949 76.91835938 30.48008949 76.91835938 25.03051758 64.37255859 C24.66031494 63.59251465 24.2901123 62.8124707 23.90869141 62.00878906 C19.74716431 53.48989831 14.6824115 45.54776483 9.21801758 37.81005859 C8.1912793 36.33666016 8.1912793 36.33666016 7.14379883 34.83349609 C6.50829102 34.16576172 5.8727832 33.49802734 5.21801758 32.81005859 C1.42163184 32.40794536 1.42163184 32.40794536 -0.35229492 33.99755859 Z " fill="#D80B2A" transform="translate(740.781982421875,385.18994140625)"/>
<path d="M0 0 C9.11123332 -0.09339967 18.22229744 -0.16411489 27.33390808 -0.20724869 C31.56652955 -0.22796901 35.79881934 -0.25599512 40.03125 -0.30175781 C44.12915217 -0.34577979 48.22673891 -0.36925343 52.32485962 -0.37950897 C53.87469436 -0.38680082 55.42451529 -0.40103386 56.97421265 -0.42292023 C74.93102086 -0.66603197 92.1260125 2.57389815 105.6640625 15.2578125 C115.86208527 27.22940444 117.131601 40.90039677 116 56 C115.23314001 59.81120176 114.05988231 62.71763561 112 66 C111.51402344 66.78503906 111.02804687 67.57007813 110.52734375 68.37890625 C106.42974118 74.2589175 101.48457115 77.97702807 95 81 C94.34 81 93.68 81 93 81 C95.45621958 83.55856207 98.02890563 85.85920686 100.75 88.125 C108.90408929 95.2636172 115.07611289 103.86329163 119 114 C119 115.32 119 116.64 119 118 C107.78 118 96.56 118 85 118 C82.36 113.05 79.72 108.1 77 103 C72.48406623 96.79059107 67.36745914 92.45581971 60 90 C57.79040747 89.84890907 55.57699953 89.75126199 53.36328125 89.68359375 C52.06455078 89.64169922 50.76582031 89.59980469 49.42773438 89.55664062 C48.05599239 89.51683013 46.68424756 89.47711784 45.3125 89.4375 C43.92902355 89.39429165 42.54555973 89.35067661 41.16210938 89.30664062 C37.77484281 89.20041972 34.38750201 89.09837642 31 89 C31.00785522 90.26444946 31.00785522 90.26444946 31.01586914 91.55444336 C31.03287826 94.67227936 31.04543406 97.79009177 31.05493164 100.90795898 C31.05997057 102.25920386 31.06680177 103.61044326 31.07543945 104.96166992 C31.08752419 106.90020434 31.09269828 108.838778 31.09765625 110.77734375 C31.10551147 112.52905884 31.10551147 112.52905884 31.11352539 114.31616211 C31 117 31 117 30 118 C27.86646826 118.10003289 25.72962458 118.13081048 23.59375 118.1328125 C22.29308594 118.13410156 20.99242187 118.13539063 19.65234375 118.13671875 C18.97155762 118.13462402 18.29077148 118.1325293 17.58935547 118.13037109 C15.50871485 118.1250224 13.42829011 118.1303168 11.34765625 118.13671875 C9.39666016 118.13478516 9.39666016 118.13478516 7.40625 118.1328125 C6.20291016 118.13168457 4.99957031 118.13055664 3.75976562 118.12939453 C1 118 1 118 0 117 C-0.09578593 115.4818148 -0.12188147 113.95917604 -0.12025452 112.43797302 C-0.12162918 111.45214233 -0.12300385 110.46631165 -0.12442017 109.4506073 C-0.12082489 108.36016617 -0.11722961 107.26972504 -0.11352539 106.14624023 C-0.11367142 105.00492645 -0.11381744 103.86361267 -0.1139679 102.68771362 C-0.11326818 98.89465469 -0.10547307 95.10164416 -0.09765625 91.30859375 C-0.09579228 88.68685432 -0.09436828 86.06511454 -0.09336853 83.44337463 C-0.09025551 77.23498045 -0.08204252 71.02660379 -0.07201904 64.81821734 C-0.06085699 57.75182559 -0.05534722 50.68543301 -0.05032361 43.61903465 C-0.03985988 29.07934737 -0.022261 14.53967393 0 0 Z M31 27 C31 39.54 31 52.08 31 65 C39.8790625 65.0928125 39.8790625 65.0928125 48.9375 65.1875 C50.78722412 65.21481201 52.63694824 65.24212402 54.54272461 65.27026367 C56.03759105 65.2790398 57.53246477 65.28668105 59.02734375 65.29296875 C59.78019653 65.30831665 60.53304932 65.32366455 61.30871582 65.33947754 C67.63773381 65.34253651 74.12976653 64.33466454 79.15625 60.24609375 C79.5996875 59.64925781 80.043125 59.05242188 80.5 58.4375 C80.9640625 57.83808594 81.428125 57.23867188 81.90625 56.62109375 C85.09705738 51.89186138 84.39057308 46.51865297 84 41 C82.3546618 35.97257772 79.45708684 32.78124212 75 30 C66.21242589 25.99432282 57.39608165 26.66448453 47.9375 26.8125 C39.5534375 26.9053125 39.5534375 26.9053125 31 27 Z " fill="#D40B2A" transform="translate(372,562)"/>
<path d="M0 0 C2.07178782 -0.01403126 4.1374426 -0.08126763 6.20800781 -0.15087891 C17.41105953 -0.22761214 17.41105953 -0.22761214 21.45800781 3.71240234 C22.46072503 4.97992164 23.42387676 6.27995235 24.34082031 7.61083984 C24.80423828 8.18495605 25.26765625 8.75907227 25.74511719 9.35058594 C27.12889251 11.06648708 28.42834522 12.82175733 29.71582031 14.61083984 C30.1835083 15.25674072 30.65119629 15.9026416 31.13305664 16.56811523 C39.45658115 28.23178775 46.23684881 40.66575055 52.34082031 53.61083984 C53.12585938 55.26792969 53.12585938 55.26792969 53.92675781 56.95849609 C62.31574686 75.57850089 69.36380412 97.0934999 70.34082031 117.61083984 C69.34082031 118.61083984 69.34082031 118.61083984 66.3815918 118.72436523 C65.08809814 118.71912842 63.79460449 118.7138916 62.46191406 118.70849609 C61.43192039 118.70637367 61.43192039 118.70637367 60.38111877 118.70420837 C58.1801423 118.69859464 55.97926622 118.68603991 53.77832031 118.67333984 C52.28938949 118.66832661 50.80045707 118.6637634 49.31152344 118.65966797 C45.65458956 118.64862077 41.99771473 118.63134697 38.34082031 118.61083984 C37.6694341 115.34095686 37.00452768 112.06978935 36.34082031 108.79833984 C36.15003906 107.86957031 35.95925781 106.94080078 35.76269531 105.98388672 C35.49199219 104.64487305 35.49199219 104.64487305 35.21582031 103.27880859 C35.04824219 102.45662842 34.88066406 101.63444824 34.70800781 100.78735352 C34.34082031 98.61083984 34.34082031 98.61083984 34.34082031 95.61083984 C12.56082031 95.61083984 -9.21917969 95.61083984 -31.65917969 95.61083984 C-32.97917969 102.87083984 -34.29917969 110.13083984 -35.65917969 117.61083984 C-37.54237237 119.49403253 -40.77848106 118.74138269 -43.28417969 118.74365234 C-43.94627441 118.74460907 -44.60836914 118.7455658 -45.29052734 118.74655151 C-46.6927093 118.74723311 -48.09489439 118.74538026 -49.49707031 118.74121094 C-51.65013682 118.73586231 -53.80299471 118.74115654 -55.95605469 118.74755859 C-57.31543015 118.74689781 -58.67480548 118.74561664 -60.03417969 118.74365234 C-61.27941406 118.74252441 -62.52464844 118.74139648 -63.80761719 118.74023438 C-66.65917969 118.61083984 -66.65917969 118.61083984 -67.65917969 117.61083984 C-67.55692999 110.0885546 -65.99067622 102.89925838 -64.03417969 95.67333984 C-63.63332153 94.17963867 -63.63332153 94.17963867 -63.22436523 92.65576172 C-56.57015255 68.39131302 -46.87486893 45.45485217 -32.65917969 24.61083984 C-31.97082031 23.59763672 -31.28246094 22.58443359 -30.57324219 21.54052734 C-26.06130653 15.13821548 -21.03885729 9.29823076 -15.65917969 3.61083984 C-15.05988647 2.8202417 -15.05988647 2.8202417 -14.44848633 2.01367188 C-10.59625987 -1.00650731 -4.69820591 0.01217152 0 0 Z M0.34082031 26.61083984 C-5.62283324 33.67840374 -10.65731802 40.91685238 -14.97167969 49.11083984 C-15.36726074 49.8563208 -15.7628418 50.60180176 -16.17041016 51.36987305 C-19.56933594 58.00169742 -21.94300125 64.5487759 -24.65917969 71.61083984 C-7.49917969 71.61083984 9.66082031 71.61083984 27.34082031 71.61083984 C22.36815582 56.69284638 15.92358215 38.84955925 4.34082031 27.61083984 C2.20538002 26.77265408 2.20538002 26.77265408 0.34082031 26.61083984 Z " fill="#D40B2A" transform="translate(824.6591796875,561.38916015625)"/>
<path d="M0 0 C10.56 0 21.12 0 32 0 C32.15855469 2.83722656 32.31710937 5.67445313 32.48046875 8.59765625 C33.36202123 50.77474998 33.36202123 50.77474998 52 87 C58.75853054 92.19025273 64.53791138 93.66739687 73 93 C79.57695558 91.71984257 83.98103784 88.2606698 88 83 C103.34020086 60.02729725 101.48230689 26.50350902 103 0 C107.39656173 -0.02465504 111.7930872 -0.04283842 116.18969727 -0.05493164 C117.68644918 -0.05997121 119.18319616 -0.06680287 120.67993164 -0.07543945 C122.82699807 -0.08752159 124.97399962 -0.09323191 127.12109375 -0.09765625 C129.06133423 -0.10551147 129.06133423 -0.10551147 131.04077148 -0.11352539 C134 0 134 0 135 1 C136.05787632 36.13713835 132.18515181 79.99807801 107.16015625 107 C95.95675613 117.37276828 80.6295707 121.36867282 65.6862793 120.97875977 C49.72514844 120.22125216 35.93451769 115.05180706 24.83203125 103.203125 C6.54837563 81.21595705 2.98469116 51.97645057 0.8125 24.5 C0.7285498 23.43861816 0.64459961 22.37723633 0.55810547 21.28369141 C0.04102044 14.13049571 0 7.23133898 0 0 Z " fill="#D50B2A" transform="translate(620,562)"/>
<path d="M0 0 C10.56 0 21.12 0 32 0 C33.2684375 6.0328125 33.2684375 6.0328125 34.5625 12.1875 C40.06744642 37.24965186 48.42634364 62.24736829 64 83 C64.52207031 83.74378906 65.04414063 84.48757813 65.58203125 85.25390625 C67.27589288 87.33973586 68.38405755 87.63918035 71 88 C71.23589844 87.47792969 71.47179687 86.95585938 71.71484375 86.41796875 C73.06628422 83.87528895 74.63634139 81.54705368 76.27392578 79.18139648 C90.56729745 58.45086217 99.18511022 36.18368198 104.44091797 11.6003418 C105.27325729 7.7290553 106.14100886 3.86546014 107 0 C117.56 0 128.12 0 139 0 C136.70020081 25.29779105 129.36495012 50.85288448 117.01806641 73.15673828 C115.94981071 75.0908703 114.91778941 77.04191547 113.88671875 78.99609375 C106.1528091 93.43133908 96.5890174 106.4109826 85 118 C80.59095042 118.5658137 76.16691257 118.62762775 71.7265625 118.70019531 C70.25586144 118.73309257 68.78546546 118.78738844 67.31640625 118.86425781 C55.27016622 119.49053159 55.27016622 119.49053159 49.96020508 116.00415039 C47.37988886 113.47332035 45.17875214 110.88083507 43 108 C42.41589355 107.30471191 41.83178711 106.60942383 41.22998047 105.89306641 C18.68663351 78.61029682 0 35.84216358 0 0 Z " fill="#D40B2A" transform="translate(165,562)"/>
<path d="M0 0 C0.88399947 0.00092179 1.76799894 0.00184359 2.67878628 0.00279331 C3.68985943 0.00141865 4.70093258 0.00004398 5.74264431 -0.00137234 C7.42038433 0.00402058 7.42038433 0.00402058 9.13201809 0.00952244 C10.30259258 0.00937641 11.47316708 0.00923038 12.67921352 0.00907993 C15.89807713 0.00965887 19.11689773 0.01468791 22.33575273 0.02165389 C25.6963417 0.02788826 29.05693143 0.02849129 32.41752529 0.0296793 C38.78529112 0.03279237 45.15303986 0.04100543 51.52079815 0.05102879 C58.76856499 0.06219068 66.01633263 0.06770057 73.26410592 0.07272422 C88.17703761 0.08318806 103.08994709 0.10153324 118.0028677 0.12304783 C118.0028677 9.03304783 118.0028677 17.94304783 118.0028677 27.12304783 C103.1528677 27.12304783 88.3028677 27.12304783 73.0028677 27.12304783 C73.0028677 57.15304783 73.0028677 87.18304783 73.0028677 118.12304783 C63.1028677 118.12304783 53.2028677 118.12304783 43.0028677 118.12304783 C41.16929326 116.28947339 41.88286803 113.72669088 41.87844753 111.28711033 C41.88384045 110.03015354 41.88384045 110.03015354 41.88934231 108.74780369 C41.88919628 107.86983631 41.88905025 106.99186893 41.8888998 106.08729649 C41.88959926 103.17080348 41.89739315 100.2543735 41.90521145 97.33789158 C41.90707551 95.32149891 41.90849947 93.30510579 41.90949917 91.2887125 C41.91332526 85.97039645 41.92315631 80.65210752 41.93420315 75.33380222 C41.94441532 69.91134095 41.94899637 64.48887531 41.95403957 59.0664072 C41.9647785 48.4186088 41.98185601 37.77083057 42.0028677 27.12304783 C41.45385296 27.12526844 40.90483822 27.12748905 40.33918667 27.12977695 C34.64578811 27.1518314 28.9524016 27.16695509 23.25897121 27.17797947 C21.13168756 27.18302081 19.00440739 27.18985374 16.87713528 27.19848728 C13.82658944 27.21056162 10.77608925 27.21627797 7.72552395 27.22070408 C6.28959644 27.22844601 6.28959644 27.22844601 4.8246603 27.23634434 C3.94382275 27.23641987 3.06298519 27.2364954 2.15545559 27.23657322 C1.37602093 27.23879383 0.59658627 27.24101444 -0.20646763 27.24330235 C-1.9971323 27.12304783 -1.9971323 27.12304783 -2.9971323 26.12304783 C-3.09672851 24.2814576 -3.12793641 22.43607816 -3.1299448 20.59179783 C-3.13123386 19.47160252 -3.13252293 18.3514072 -3.13385105 17.19726658 C-3.12998386 16.01777439 -3.12611668 14.8382822 -3.1221323 13.62304783 C-3.12599949 12.44355564 -3.12986668 11.26406345 -3.13385105 10.04882908 C-3.13256199 8.92863377 -3.13127293 7.80843845 -3.1299448 6.65429783 C-3.12881687 5.61853611 -3.12768894 4.58277439 -3.12652683 3.51562595 C-2.94621309 0.18152284 -2.94621309 0.18152284 0 0 Z " fill="#D40B2A" transform="translate(498.99713230133057,561.8769521713257)"/>
<path d="M0 0 C12.54 0 25.08 0 38 0 C38 48.18 38 96.36 38 146 C25.13 146 12.26 146 -1 146 C-1.02254604 127.11161809 -1.0409786 108.22324702 -1.05181217 89.33485508 C-1.05697538 80.56527285 -1.06401854 71.79569955 -1.07543945 63.02612305 C-1.08538554 55.38537097 -1.09185325 47.74462536 -1.09408849 40.10386699 C-1.09539573 36.05561615 -1.09848238 32.00738381 -1.10573006 27.95913887 C-1.11248909 24.15319131 -1.1146172 20.34726998 -1.11310768 16.54131699 C-1.11338406 15.14042328 -1.11538988 13.73952875 -1.11920547 12.33864021 C-1.12414083 10.43410492 -1.122398 8.52955574 -1.12025452 6.62501526 C-1.12117631 5.55665719 -1.1220981 4.48829912 -1.12304783 3.38756657 C-1 1 -1 1 0 0 Z " fill="#D30B2A" transform="translate(600,386)"/>
<path d="M0 0 C10.23 0 20.46 0 31 0 C31 29.7 31 59.4 31 90 C53.66297567 89.96038613 53.66297567 89.96038613 76.32592773 89.90991211 C80.70129395 89.90539551 80.70129395 89.90539551 82.74720764 89.90455627 C84.18133351 89.903017 85.61545806 89.89949241 87.04957581 89.89442444 C89.21723695 89.88714476 91.38481876 89.88609266 93.55249023 89.88647461 C94.77604721 89.884254 95.99960419 89.88203339 97.26023865 89.87974548 C100 90 100 90 101 91 C101.09971786 92.91458282 101.13080589 94.83282317 101.1328125 96.75 C101.13410156 97.9153125 101.13539063 99.080625 101.13671875 100.28125 C101.13285156 101.5084375 101.12898437 102.735625 101.125 104 C101.12886719 105.2271875 101.13273438 106.454375 101.13671875 107.71875 C101.13542969 108.8840625 101.13414062 110.049375 101.1328125 111.25 C101.13168457 112.32765625 101.13055664 113.4053125 101.12939453 114.515625 C101 117 101 117 100 118 C96.89489513 118.09533753 93.8121658 118.12549821 90.70678711 118.11352539 C89.71544801 118.11364593 88.72410891 118.11376646 87.70272923 118.11389065 C84.47757831 118.11314123 81.2524844 118.1055117 78.02734375 118.09765625 C76.0426842 118.09618692 74.05802427 118.09516615 72.07336426 118.09460449 C64.69473695 118.08935058 57.31611792 118.07538951 49.9375 118.0625 C33.458125 118.041875 16.97875 118.02125 0 118 C0 79.06 0 40.12 0 0 Z " fill="#D30B29" transform="translate(910,562)"/>
<path d="M0 0 C12.54 0 25.08 0 38 0 C38 48.18 38 96.36 38 146 C25.46 146 12.92 146 0 146 C0 97.82 0 49.64 0 0 Z " fill="#D90B2B" transform="translate(163,386)"/>
<path d="M0 0 C9.9 0 19.8 0 30 0 C31.60311035 1.60311035 31.12600268 3.29743456 31.12698364 5.51733398 C31.12980347 6.49330536 31.13262329 7.46927673 31.13552856 8.474823 C31.13350433 9.55434235 31.1314801 10.63386169 31.12939453 11.74609375 C31.13114685 12.87604767 31.13289917 14.00600159 31.13470459 15.17019653 C31.13912582 18.92597973 31.13618416 22.68171628 31.1328125 26.4375 C31.13348546 29.03442392 31.13445542 31.63134778 31.13571167 34.22827148 C31.13718901 39.67920589 31.13512751 45.13012258 31.13037109 50.58105469 C31.1249285 56.89139229 31.12669117 63.20169759 31.1321975 69.51203442 C31.13727431 75.571677 31.13674709 81.63130372 31.13381577 87.69094849 C31.13314623 90.27466842 31.13397585 92.85838917 31.13629532 95.44210815 C31.13882025 99.04606343 31.1349835 102.6499557 31.12939453 106.25390625 C31.13141876 107.3334256 31.13344299 108.41294495 31.13552856 109.525177 C31.13129883 110.98913406 31.13129883 110.98913406 31.12698364 112.48266602 C31.12660662 113.33586929 31.12622959 114.18907257 31.12584114 115.06813049 C31 117 31 117 30 118 C20.1 118 10.2 118 0 118 C0 79.06 0 40.12 0 0 Z " fill="#D30B2A" transform="translate(317,562)"/>
<path d="M0 0 C1.78500467 0.05526481 3.57017458 0.10543953 5.35546875 0.15039062 C9.69944086 0.27075186 14.03537463 0.45998628 18.375 0.6875 C18.87 1.6775 18.87 1.6775 19.375 2.6875 C18.30652832 2.63513184 17.23805664 2.58276367 16.13720703 2.52880859 C12.13107782 2.34630026 8.12530533 2.2324886 4.11621094 2.13818359 C2.3893434 2.08822755 0.66289168 2.02022986 -1.0625 1.93310547 C-11.62312739 1.07654763 -11.62312739 1.07654763 -21.05175781 4.95800781 C-23.50947191 7.41572191 -25.63465624 9.84277728 -27.625 12.6875 C-28.285 12.3575 -28.945 12.0275 -29.625 11.6875 C-21.75645623 -0.82853872 -13.86141464 -0.74867563 0 0 Z " fill="#CB0417" transform="translate(744.625,385.3125)"/>
<path d="M0 0 C0.66 0 1.32 0 2 0 C0.52278578 3.45201639 -1.43794001 5.64961936 -4.125 8.25 C-4.84945312 8.95640625 -5.57390625 9.6628125 -6.3203125 10.390625 C-6.87460937 10.92171875 -7.42890625 11.4528125 -8 12 C-8.66 11.67 -9.32 11.34 -10 11 C-8.38150935 9.16053461 -6.75581169 7.32848583 -5.125 5.5 C-4.66480469 4.97535156 -4.20460938 4.45070313 -3.73046875 3.91015625 C-2.52827924 2.56858245 -1.26754054 1.28000815 0 0 Z " fill="#9C061B" transform="translate(725,386)"/>
</svg>
