<svg xmlns="http://www.w3.org/2000/svg" xmlns:xlink="http://www.w3.org/1999/xlink" width="125" zoomAndPan="magnify" viewBox="0 0 93.75 93.749996" height="125" preserveAspectRatio="xMidYMid meet" version="1.2"><defs/><g id="8560785bf3"><g style="fill:#aba6a8;fill-opacity:0.4392;"><g transform="translate(2.565247, 48.304551)"><path style="stroke:none" d="M 5.421875 -14.890625 L 5.421875 0 L 1.71875 0 L 1.71875 -14.890625 Z M 5.421875 -14.890625 "/></g></g><g style="fill:#aba6a8;fill-opacity:0.4392;"><g transform="translate(9.709608, 48.304551)"><path style="stroke:none" d="M 18.046875 0 L 14.0625 0 C 13.019531 -2.238281 11.675781 -4.28125 10.03125 -6.125 C 8.394531 -7.976562 6.941406 -9.28125 5.671875 -10.03125 L 5.34375 -10.03125 L 5.34375 0 L 1.71875 0 L 1.71875 -14.890625 L 5.078125 -14.890625 C 6.796875 -13.984375 8.609375 -12.550781 10.515625 -10.59375 C 12.429688 -8.644531 13.632812 -7.128906 14.125 -6.046875 L 14.4375 -6.046875 L 14.4375 -14.890625 L 18.046875 -14.890625 Z M 18.046875 0 "/></g></g><g style="fill:#aba6a8;fill-opacity:0.4392;"><g transform="translate(29.484177, 48.304551)"><path style="stroke:none" d="M 1.71875 0 L 1.71875 -14.890625 L 9.125 -14.890625 C 11.75 -14.890625 13.757812 -14.222656 15.15625 -12.890625 C 16.550781 -11.554688 17.25 -9.734375 17.25 -7.421875 C 17.25 -5.140625 16.5625 -3.332031 15.1875 -2 C 13.8125 -0.664062 11.816406 0 9.203125 0 Z M 9.109375 -11.65625 L 5.359375 -11.65625 L 5.359375 -3.234375 L 9.171875 -3.234375 C 10.546875 -3.234375 11.601562 -3.613281 12.34375 -4.375 C 13.09375 -5.144531 13.46875 -6.160156 13.46875 -7.421875 C 13.46875 -8.691406 13.078125 -9.710938 12.296875 -10.484375 C 11.515625 -11.265625 10.453125 -11.65625 9.109375 -11.65625 Z M 9.109375 -11.65625 "/></g></g><g style="fill:#aba6a8;fill-opacity:0.4392;"><g transform="translate(47.493916, 48.304551)"><path style="stroke:none" d="M 5.421875 -14.890625 L 5.421875 0 L 1.71875 0 L 1.71875 -14.890625 Z M 5.421875 -14.890625 "/></g></g><g style="fill:#aba6a8;fill-opacity:0.4392;"><g transform="translate(54.638277, 48.304551)"><path style="stroke:none" d="M 7.5 -14.890625 L 11.078125 -14.890625 C 12.671875 -13.378906 14.128906 -11.203125 15.453125 -8.359375 C 16.785156 -5.523438 17.601562 -2.738281 17.90625 0 L 14.078125 0 C 13.992188 -0.8125 13.820312 -1.78125 13.5625 -2.90625 L 4.8125 -2.90625 C 4.582031 -1.957031 4.410156 -0.988281 4.296875 0 L 0.46875 0 C 0.78125 -2.707031 1.625 -5.484375 3 -8.328125 C 4.382812 -11.171875 5.882812 -13.359375 7.5 -14.890625 Z M 9.0625 -11.828125 C 7.738281 -10.378906 6.597656 -8.328125 5.640625 -5.671875 L 12.78125 -5.671875 C 11.8125 -8.398438 10.71875 -10.453125 9.5 -11.828125 Z M 9.0625 -11.828125 "/></g></g><g style="fill:#aba6a8;fill-opacity:0.4392;"><g transform="translate(73.009492, 48.304551)"><path style="stroke:none" d="M 18.046875 0 L 14.0625 0 C 13.019531 -2.238281 11.675781 -4.28125 10.03125 -6.125 C 8.394531 -7.976562 6.941406 -9.28125 5.671875 -10.03125 L 5.34375 -10.03125 L 5.34375 0 L 1.71875 0 L 1.71875 -14.890625 L 5.078125 -14.890625 C 6.796875 -13.984375 8.609375 -12.550781 10.515625 -10.59375 C 12.429688 -8.644531 13.632812 -7.128906 14.125 -6.046875 L 14.4375 -6.046875 L 14.4375 -14.890625 L 18.046875 -14.890625 Z M 18.046875 0 "/></g></g><g style="fill:#e1dfe0;fill-opacity:1;"><g transform="translate(1.625252, 47.364555)"><path style="stroke:none" d="M 5.421875 -14.890625 L 5.421875 0 L 1.71875 0 L 1.71875 -14.890625 Z M 5.421875 -14.890625 "/></g></g><g style="fill:#e1dfe0;fill-opacity:1;"><g transform="translate(8.769613, 47.364555)"><path style="stroke:none" d="M 18.046875 0 L 14.0625 0 C 13.019531 -2.238281 11.675781 -4.28125 10.03125 -6.125 C 8.394531 -7.976562 6.941406 -9.28125 5.671875 -10.03125 L 5.34375 -10.03125 L 5.34375 0 L 1.71875 0 L 1.71875 -14.890625 L 5.078125 -14.890625 C 6.796875 -13.984375 8.609375 -12.550781 10.515625 -10.59375 C 12.429688 -8.644531 13.632812 -7.128906 14.125 -6.046875 L 14.4375 -6.046875 L 14.4375 -14.890625 L 18.046875 -14.890625 Z M 18.046875 0 "/></g></g><g style="fill:#e1dfe0;fill-opacity:1;"><g transform="translate(28.544182, 47.364555)"><path style="stroke:none" d="M 1.71875 0 L 1.71875 -14.890625 L 9.125 -14.890625 C 11.75 -14.890625 13.757812 -14.222656 15.15625 -12.890625 C 16.550781 -11.554688 17.25 -9.734375 17.25 -7.421875 C 17.25 -5.140625 16.5625 -3.332031 15.1875 -2 C 13.8125 -0.664062 11.816406 0 9.203125 0 Z M 9.109375 -11.65625 L 5.359375 -11.65625 L 5.359375 -3.234375 L 9.171875 -3.234375 C 10.546875 -3.234375 11.601562 -3.613281 12.34375 -4.375 C 13.09375 -5.144531 13.46875 -6.160156 13.46875 -7.421875 C 13.46875 -8.691406 13.078125 -9.710938 12.296875 -10.484375 C 11.515625 -11.265625 10.453125 -11.65625 9.109375 -11.65625 Z M 9.109375 -11.65625 "/></g></g><g style="fill:#e1dfe0;fill-opacity:1;"><g transform="translate(46.553921, 47.364555)"><path style="stroke:none" d="M 5.421875 -14.890625 L 5.421875 0 L 1.71875 0 L 1.71875 -14.890625 Z M 5.421875 -14.890625 "/></g></g><g style="fill:#e1dfe0;fill-opacity:1;"><g transform="translate(53.698282, 47.364555)"><path style="stroke:none" d="M 7.5 -14.890625 L 11.078125 -14.890625 C 12.671875 -13.378906 14.128906 -11.203125 15.453125 -8.359375 C 16.785156 -5.523438 17.601562 -2.738281 17.90625 0 L 14.078125 0 C 13.992188 -0.8125 13.820312 -1.78125 13.5625 -2.90625 L 4.8125 -2.90625 C 4.582031 -1.957031 4.410156 -0.988281 4.296875 0 L 0.46875 0 C 0.78125 -2.707031 1.625 -5.484375 3 -8.328125 C 4.382812 -11.171875 5.882812 -13.359375 7.5 -14.890625 Z M 9.0625 -11.828125 C 7.738281 -10.378906 6.597656 -8.328125 5.640625 -5.671875 L 12.78125 -5.671875 C 11.8125 -8.398438 10.71875 -10.453125 9.5 -11.828125 Z M 9.0625 -11.828125 "/></g></g><g style="fill:#e1dfe0;fill-opacity:1;"><g transform="translate(72.069497, 47.364555)"><path style="stroke:none" d="M 18.046875 0 L 14.0625 0 C 13.019531 -2.238281 11.675781 -4.28125 10.03125 -6.125 C 8.394531 -7.976562 6.941406 -9.28125 5.671875 -10.03125 L 5.34375 -10.03125 L 5.34375 0 L 1.71875 0 L 1.71875 -14.890625 L 5.078125 -14.890625 C 6.796875 -13.984375 8.609375 -12.550781 10.515625 -10.59375 C 12.429688 -8.644531 13.632812 -7.128906 14.125 -6.046875 L 14.4375 -6.046875 L 14.4375 -14.890625 L 18.046875 -14.890625 Z M 18.046875 0 "/></g></g><g style="fill:#c5a16f;fill-opacity:0.4392;"><g transform="translate(4.063249, 63.421015)"><path style="stroke:none" d="M 8.828125 0 L 5.59375 0 C 4.28125 -1.269531 3.109375 -3.003906 2.078125 -5.203125 C 1.054688 -7.410156 0.410156 -9.707031 0.140625 -12.09375 L 3.28125 -12.09375 C 3.519531 -10.132812 4 -8.34375 4.71875 -6.71875 C 5.445312 -5.101562 6.21875 -3.8125 7.03125 -2.84375 L 7.390625 -2.84375 C 8.242188 -3.851562 9.046875 -5.160156 9.796875 -6.765625 C 10.554688 -8.378906 11.054688 -10.15625 11.296875 -12.09375 L 14.4375 -12.09375 C 14.15625 -9.726562 13.484375 -7.441406 12.421875 -5.234375 C 11.359375 -3.035156 10.160156 -1.289062 8.828125 0 Z M 8.828125 0 "/></g></g><g style="fill:#c5a16f;fill-opacity:0.4392;"><g transform="translate(18.630365, 63.421015)"><path style="stroke:none" d="M 4.40625 -12.09375 L 4.40625 0 L 1.40625 0 L 1.40625 -12.09375 Z M 4.40625 -12.09375 "/></g></g><g style="fill:#c5a16f;fill-opacity:0.4392;"><g transform="translate(24.436476, 63.421015)"><path style="stroke:none" d="M 7.34375 -3.046875 L 4.40625 -3.046875 L 4.40625 0 L 1.40625 0 L 1.40625 -12.09375 L 7.671875 -12.09375 C 9.441406 -12.09375 10.828125 -11.660156 11.828125 -10.796875 C 12.828125 -9.941406 13.328125 -8.785156 13.328125 -7.328125 C 13.328125 -5.484375 12.40625 -4.25 10.5625 -3.625 C 11.164062 -3.40625 11.773438 -2.925781 12.390625 -2.1875 C 13.015625 -1.457031 13.425781 -0.726562 13.625 0 L 10.25 0 C 10.03125 -0.632812 9.675781 -1.25 9.1875 -1.84375 C 8.707031 -2.445312 8.09375 -2.847656 7.34375 -3.046875 Z M 4.40625 -9.453125 L 4.40625 -5.328125 L 7.984375 -5.328125 C 8.703125 -5.328125 9.253906 -5.515625 9.640625 -5.890625 C 10.035156 -6.265625 10.234375 -6.742188 10.234375 -7.328125 C 10.234375 -7.941406 10.015625 -8.445312 9.578125 -8.84375 C 9.148438 -9.25 8.578125 -9.453125 7.859375 -9.453125 Z M 4.40625 -9.453125 "/></g></g><g style="fill:#c5a16f;fill-opacity:0.4392;"><g transform="translate(38.830789, 63.421015)"><path style="stroke:none" d="M 0 -9.453125 L 0 -12.09375 L 12.34375 -12.09375 L 12.34375 -9.453125 L 7.671875 -9.453125 L 7.671875 0 L 4.671875 0 L 4.671875 -9.453125 Z M 0 -9.453125 "/></g></g><g style="fill:#c5a16f;fill-opacity:0.4392;"><g transform="translate(51.168773, 63.421015)"><path style="stroke:none" d="M 7.625 -2.265625 C 8.144531 -2.265625 8.601562 -2.390625 9 -2.640625 C 9.394531 -2.898438 9.722656 -3.269531 9.984375 -3.75 C 10.253906 -4.226562 10.476562 -4.757812 10.65625 -5.34375 C 10.832031 -5.9375 10.96875 -6.625 11.0625 -7.40625 C 11.15625 -8.195312 11.21875 -8.953125 11.25 -9.671875 C 11.289062 -10.398438 11.3125 -11.207031 11.3125 -12.09375 L 14.453125 -12.09375 C 14.421875 -11.113281 14.375 -10.234375 14.3125 -9.453125 C 14.257812 -8.671875 14.164062 -7.832031 14.03125 -6.9375 C 13.894531 -6.050781 13.722656 -5.269531 13.515625 -4.59375 C 13.304688 -3.925781 13.023438 -3.269531 12.671875 -2.625 C 12.328125 -1.988281 11.921875 -1.460938 11.453125 -1.046875 C 10.992188 -0.640625 10.4375 -0.3125 9.78125 -0.0625 C 9.125 0.1875 8.382812 0.3125 7.5625 0.3125 C 6.75 0.3125 6.007812 0.1875 5.34375 -0.0625 C 4.6875 -0.3125 4.125 -0.640625 3.65625 -1.046875 C 3.1875 -1.460938 2.773438 -1.988281 2.421875 -2.625 C 2.078125 -3.269531 1.796875 -3.929688 1.578125 -4.609375 C 1.359375 -5.296875 1.175781 -6.078125 1.03125 -6.953125 C 0.894531 -7.828125 0.796875 -8.660156 0.734375 -9.453125 C 0.671875 -10.242188 0.628906 -11.125 0.609375 -12.09375 L 3.71875 -12.09375 C 3.738281 -5.539062 5.039062 -2.265625 7.625 -2.265625 Z M 7.625 -2.265625 "/></g></g><g style="fill:#c5a16f;fill-opacity:0.4392;"><g transform="translate(65.701271, 63.421015)"><path style="stroke:none" d="M 6.09375 -12.09375 L 9 -12.09375 C 10.289062 -10.875 11.476562 -9.109375 12.5625 -6.796875 C 13.644531 -4.484375 14.304688 -2.21875 14.546875 0 L 11.4375 0 C 11.375 -0.65625 11.238281 -1.445312 11.03125 -2.375 L 3.90625 -2.375 C 3.71875 -1.59375 3.578125 -0.800781 3.484375 0 L 0.375 0 C 0.632812 -2.195312 1.320312 -4.453125 2.4375 -6.765625 C 3.5625 -9.078125 4.78125 -10.851562 6.09375 -12.09375 Z M 7.359375 -9.609375 C 6.285156 -8.429688 5.359375 -6.765625 4.578125 -4.609375 L 10.390625 -4.609375 C 9.597656 -6.828125 8.707031 -8.492188 7.71875 -9.609375 Z M 7.359375 -9.609375 "/></g></g><g style="fill:#c5a16f;fill-opacity:0.4392;"><g transform="translate(80.631267, 63.421015)"><path style="stroke:none" d="M 1.40625 0 L 1.40625 -12.09375 L 4.40625 -12.09375 L 4.40625 -2.640625 L 11.71875 -2.640625 L 11.71875 0 Z M 1.40625 0 "/></g></g><g style="fill:#ffcb83;fill-opacity:1;"><g transform="translate(3.299404, 62.657169)"><path style="stroke:none" d="M 8.828125 0 L 5.59375 0 C 4.28125 -1.269531 3.109375 -3.003906 2.078125 -5.203125 C 1.054688 -7.410156 0.410156 -9.707031 0.140625 -12.09375 L 3.28125 -12.09375 C 3.519531 -10.132812 4 -8.34375 4.71875 -6.71875 C 5.445312 -5.101562 6.21875 -3.8125 7.03125 -2.84375 L 7.390625 -2.84375 C 8.242188 -3.851562 9.046875 -5.160156 9.796875 -6.765625 C 10.554688 -8.378906 11.054688 -10.15625 11.296875 -12.09375 L 14.4375 -12.09375 C 14.15625 -9.726562 13.484375 -7.441406 12.421875 -5.234375 C 11.359375 -3.035156 10.160156 -1.289062 8.828125 0 Z M 8.828125 0 "/></g></g><g style="fill:#ffcb83;fill-opacity:1;"><g transform="translate(17.866519, 62.657169)"><path style="stroke:none" d="M 4.40625 -12.09375 L 4.40625 0 L 1.40625 0 L 1.40625 -12.09375 Z M 4.40625 -12.09375 "/></g></g><g style="fill:#ffcb83;fill-opacity:1;"><g transform="translate(23.672631, 62.657169)"><path style="stroke:none" d="M 7.34375 -3.046875 L 4.40625 -3.046875 L 4.40625 0 L 1.40625 0 L 1.40625 -12.09375 L 7.671875 -12.09375 C 9.441406 -12.09375 10.828125 -11.660156 11.828125 -10.796875 C 12.828125 -9.941406 13.328125 -8.785156 13.328125 -7.328125 C 13.328125 -5.484375 12.40625 -4.25 10.5625 -3.625 C 11.164062 -3.40625 11.773438 -2.925781 12.390625 -2.1875 C 13.015625 -1.457031 13.425781 -0.726562 13.625 0 L 10.25 0 C 10.03125 -0.632812 9.675781 -1.25 9.1875 -1.84375 C 8.707031 -2.445312 8.09375 -2.847656 7.34375 -3.046875 Z M 4.40625 -9.453125 L 4.40625 -5.328125 L 7.984375 -5.328125 C 8.703125 -5.328125 9.253906 -5.515625 9.640625 -5.890625 C 10.035156 -6.265625 10.234375 -6.742188 10.234375 -7.328125 C 10.234375 -7.941406 10.015625 -8.445312 9.578125 -8.84375 C 9.148438 -9.25 8.578125 -9.453125 7.859375 -9.453125 Z M 4.40625 -9.453125 "/></g></g><g style="fill:#ffcb83;fill-opacity:1;"><g transform="translate(38.066943, 62.657169)"><path style="stroke:none" d="M 0 -9.453125 L 0 -12.09375 L 12.34375 -12.09375 L 12.34375 -9.453125 L 7.671875 -9.453125 L 7.671875 0 L 4.671875 0 L 4.671875 -9.453125 Z M 0 -9.453125 "/></g></g><g style="fill:#ffcb83;fill-opacity:1;"><g transform="translate(50.404928, 62.657169)"><path style="stroke:none" d="M 7.625 -2.265625 C 8.144531 -2.265625 8.601562 -2.390625 9 -2.640625 C 9.394531 -2.898438 9.722656 -3.269531 9.984375 -3.75 C 10.253906 -4.226562 10.476562 -4.757812 10.65625 -5.34375 C 10.832031 -5.9375 10.96875 -6.625 11.0625 -7.40625 C 11.15625 -8.195312 11.21875 -8.953125 11.25 -9.671875 C 11.289062 -10.398438 11.3125 -11.207031 11.3125 -12.09375 L 14.453125 -12.09375 C 14.421875 -11.113281 14.375 -10.234375 14.3125 -9.453125 C 14.257812 -8.671875 14.164062 -7.832031 14.03125 -6.9375 C 13.894531 -6.050781 13.722656 -5.269531 13.515625 -4.59375 C 13.304688 -3.925781 13.023438 -3.269531 12.671875 -2.625 C 12.328125 -1.988281 11.921875 -1.460938 11.453125 -1.046875 C 10.992188 -0.640625 10.4375 -0.3125 9.78125 -0.0625 C 9.125 0.1875 8.382812 0.3125 7.5625 0.3125 C 6.75 0.3125 6.007812 0.1875 5.34375 -0.0625 C 4.6875 -0.3125 4.125 -0.640625 3.65625 -1.046875 C 3.1875 -1.460938 2.773438 -1.988281 2.421875 -2.625 C 2.078125 -3.269531 1.796875 -3.929688 1.578125 -4.609375 C 1.359375 -5.296875 1.175781 -6.078125 1.03125 -6.953125 C 0.894531 -7.828125 0.796875 -8.660156 0.734375 -9.453125 C 0.671875 -10.242188 0.628906 -11.125 0.609375 -12.09375 L 3.71875 -12.09375 C 3.738281 -5.539062 5.039062 -2.265625 7.625 -2.265625 Z M 7.625 -2.265625 "/></g></g><g style="fill:#ffcb83;fill-opacity:1;"><g transform="translate(64.937425, 62.657169)"><path style="stroke:none" d="M 6.09375 -12.09375 L 9 -12.09375 C 10.289062 -10.875 11.476562 -9.109375 12.5625 -6.796875 C 13.644531 -4.484375 14.304688 -2.21875 14.546875 0 L 11.4375 0 C 11.375 -0.65625 11.238281 -1.445312 11.03125 -2.375 L 3.90625 -2.375 C 3.71875 -1.59375 3.578125 -0.800781 3.484375 0 L 0.375 0 C 0.632812 -2.195312 1.320312 -4.453125 2.4375 -6.765625 C 3.5625 -9.078125 4.78125 -10.851562 6.09375 -12.09375 Z M 7.359375 -9.609375 C 6.285156 -8.429688 5.359375 -6.765625 4.578125 -4.609375 L 10.390625 -4.609375 C 9.597656 -6.828125 8.707031 -8.492188 7.71875 -9.609375 Z M 7.359375 -9.609375 "/></g></g><g style="fill:#ffcb83;fill-opacity:1;"><g transform="translate(79.867421, 62.657169)"><path style="stroke:none" d="M 1.40625 0 L 1.40625 -12.09375 L 4.40625 -12.09375 L 4.40625 -2.640625 L 11.71875 -2.640625 L 11.71875 0 Z M 1.40625 0 "/></g></g></g></svg>